<?xml version="1.0" encoding="UTF-8" standalone="no"?>
<!DOCTYPE svg PUBLIC "-//W3C//DTD SVG 1.1//EN" "http://www.w3.org/Graphics/SVG/1.1/DTD/svg11.dtd">
<svg xmlns="http://www.w3.org/2000/svg" xmlns:xlink="http://www.w3.org/1999/xlink" version="1.1" width="566.929pt" height="283.465pt" viewBox="0 0 566.929 283.465">
<g enable-background="new">
<g id="Layer-1" data-name="Layer 1">
<path transform="matrix(1,0,0,-1,194.3672,168.0102)" d="M 0 0 L -14.363 0 L -14.363 24.518 L 0 24.518 L 0 20.918 L -9.216 20.918 L -9.216 14.757 L -.742 14.757 L -.742 11.156 L -9.216 11.156 L -9.216 3.575 L 0 3.575 Z " fill="#2e3092"/>
<clipPath id="cp0">
<path transform="matrix(1,0,0,-1,0,283.465)" d="M 0 283.465 L 566.929 283.465 L 566.929 0 L 0 0 Z "/>
</clipPath>
<g clip-path="url(#cp0)">
<path transform="matrix(1,0,0,-1,211.1455,168.0102)" d="M 0 0 L -5.305 0 L -6.712 2.967 C -6.763 3.052 -6.858 3.258 -6.991 3.588 C -7.131 3.917 -7.226 4.143 -7.277 4.26 C -7.378 4.497 -7.46 4.738 -7.518 4.982 C -7.581 5.227 -7.625 5.467 -7.657 5.705 C -7.765 5.163 -7.917 4.7 -8.12 4.311 C -8.189 4.057 -8.272 3.819 -8.36 3.601 C -8.456 3.382 -8.608 3.103 -8.811 2.764 L -10.116 0 L -15.574 0 L -10.116 9.406 L -15.314 18.433 L -9.711 18.433 L -8.17 15.111 L -7.815 14.072 L -7.657 13.438 L -7.017 15.162 L -5.356 18.433 L -.108 18.433 L -5.255 9.508 Z " fill="#2e3092"/>
<path transform="matrix(1,0,0,-1,222.105,162.0268)" d="M 0 0 L 0 6.111 C 0 7.413 -.07 8.24 -.209 8.596 C -.462 9.321 -1.097 9.686 -2.098 9.686 C -3.245 9.686 -3.942 8.985 -4.203 7.581 C -4.304 6.938 -4.354 6.279 -4.354 5.604 L -4.354 .102 C -4.354 -2.079 -3.587 -3.169 -2.047 -3.169 C -1.433 -3.169 -.925 -2.881 -.513 -2.307 C -.171 -1.663 0 -.896 0 0 M 4.76 -.329 C 4.76 -2.069 4.443 -3.457 3.816 -4.487 C 2.992 -5.79 1.673 -6.439 -.152 -6.439 C -1.16 -6.439 -1.99 -6.287 -2.637 -5.983 C -3.29 -5.679 -3.892 -5.035 -4.456 -4.057 L -4.557 -12.17 L -9.013 -12.17 L -9.013 12.449 L -4.354 12.449 L -4.354 10.522 C -3.93 11.385 -3.366 12.009 -2.662 12.398 C -2.307 12.586 -1.92 12.729 -1.515 12.83 C -1.103 12.932 -.653 12.982 -.152 12.982 C 1.414 12.982 2.631 12.497 3.48 11.524 C 4.336 10.551 4.76 8.833 4.76 6.364 Z " fill="#2e3092"/>
<path transform="matrix(1,0,0,-1,239.9292,156.3725)" d="M 0 0 L 0 1.598 C 0 2.526 -.19 3.153 -.564 3.474 C -.906 3.845 -1.559 4.031 -2.51 4.031 C -3.505 4.031 -4.171 3.692 -4.507 3.018 C -4.678 2.545 -4.767 1.775 -4.767 .71 L -4.767 0 Z M 4.608 -3.271 L -4.767 -3.271 L -4.767 -5.983 C -4.767 -7.064 -4.563 -7.825 -4.152 -8.266 C -3.689 -8.636 -3.074 -8.823 -2.307 -8.823 C -1.521 -8.823 -.957 -8.569 -.615 -8.063 C -.311 -7.521 -.158 -6.633 -.158 -5.4 L 4.608 -5.4 C 4.608 -7.581 4.139 -9.213 3.201 -10.294 C 2.143 -11.495 .425 -12.094 -1.946 -12.094 C -4.646 -12.094 -6.58 -11.501 -7.746 -10.319 C -8.918 -9.137 -9.501 -7.149 -9.501 -4.36 L -9.501 .457 C -9.501 5.036 -7.213 7.328 -2.637 7.328 C .406 7.328 2.44 6.618 3.461 5.198 C 3.835 4.69 4.12 3.93 4.311 2.916 C 4.507 1.901 4.608 .669 4.608 -.786 Z " fill="#2e3092"/>
<path transform="matrix(1,0,0,-1,257.7471,154.26799)" d="M 0 0 C -1.172 0 -2.028 -.066 -2.561 -.203 C -3.955 -.59 -4.659 -1.56 -4.659 -3.112 L -4.659 -13.742 L -9.368 -13.742 L -9.368 4.69 L -4.811 4.69 L -4.811 1.42 C -4.247 2.644 -3.67 3.477 -3.081 3.911 C -2.491 4.349 -1.92 4.652 -1.356 4.817 L 0 5.021 Z " fill="#2e3092"/>
<path transform="matrix(1,0,0,-1,266.9448,168.061)" d="M 0 0 C -.805 -.102 -1.623 -.152 -2.459 -.152 C -3.125 -.152 -3.708 -.11 -4.215 -.025 C -4.716 .061 -5.135 .203 -5.458 .406 C -6.326 .897 -6.764 1.733 -6.764 2.916 L -6.764 15.365 L -8.659 15.365 L -8.659 18.483 L -6.764 18.483 L -6.764 23.58 L -2.054 23.58 L -2.054 18.483 L 0 18.483 L 0 15.365 L -2.054 15.365 L -2.054 3.955 C -2.054 3.753 -1.889 3.575 -1.566 3.423 C -1.306 3.321 -.996 3.271 -.615 3.271 L -.311 3.271 C -.171 3.271 -.07 3.287 0 3.321 Z " fill="#2e3092"/>
<path transform="matrix(1,0,0,-1,299.5439,147.0922)" d="M 0 0 L -5.939 0 L -5.939 -20.918 L -11.01 -20.918 L -11.01 0 L -16.956 0 L -16.956 3.6 L 0 3.6 Z " fill="#2e3092"/>
<path transform="matrix(1,0,0,-1,310.9668,156.3725)" d="M 0 0 L 0 1.598 C 0 2.526 -.19 3.153 -.564 3.474 C -.907 3.845 -1.56 4.031 -2.511 4.031 C -3.506 4.031 -4.171 3.692 -4.507 3.018 C -4.679 2.545 -4.767 1.775 -4.767 .71 L -4.767 0 Z M 4.607 -3.271 L -4.767 -3.271 L -4.767 -5.983 C -4.767 -7.064 -4.564 -7.825 -4.152 -8.266 C -3.689 -8.636 -3.074 -8.823 -2.308 -8.823 C -1.521 -8.823 -.958 -8.569 -.615 -8.063 C -.311 -7.521 -.159 -6.633 -.159 -5.4 L 4.607 -5.4 C 4.607 -7.581 4.139 -9.213 3.2 -10.294 C 2.142 -11.495 .424 -12.094 -1.946 -12.094 C -4.646 -12.094 -6.58 -11.501 -7.746 -10.319 C -8.919 -9.137 -9.502 -7.149 -9.502 -4.36 L -9.502 .457 C -9.502 5.036 -7.214 7.328 -2.638 7.328 C .405 7.328 2.44 6.618 3.461 5.198 C 3.835 4.69 4.12 3.93 4.31 2.916 C 4.507 1.901 4.607 .669 4.607 -.786 Z " fill="#2e3092"/>
<path transform="matrix(1,0,0,-1,331.7822,162.5082)" d="M 0 0 C 0 -.998 -.12 -1.866 -.354 -2.611 C -.596 -3.356 -.982 -3.99 -1.509 -4.513 C -2.484 -5.477 -4.133 -5.958 -6.452 -5.958 C -8.589 -5.958 -10.186 -5.429 -11.251 -4.373 C -12.322 -3.318 -12.854 -1.562 -12.854 .888 L -12.854 6.896 C -12.854 9.296 -12.239 11.029 -11.01 12.095 C -9.933 13.007 -8.417 13.464 -6.452 13.464 C -4.253 13.464 -2.586 12.905 -1.458 11.79 C -.982 11.317 -.621 10.763 -.367 10.129 C -.12 9.495 0 8.782 0 7.986 L 0 6.542 L -4.709 6.542 L -4.709 8.621 C -4.709 9.65 -5.255 10.167 -6.351 10.167 C -6.896 10.167 -7.347 9.914 -7.708 9.406 C -7.98 8.899 -8.119 7.774 -8.119 6.034 L -8.119 1.725 C -8.119 0 -8.012 -1.182 -7.809 -1.825 C -7.619 -2.298 -7.137 -2.586 -6.351 -2.688 C -5.565 -2.688 -5.09 -2.399 -4.919 -1.825 C -4.881 -1.588 -4.836 -1.29 -4.785 -.926 C -4.734 -.561 -4.709 -.253 -4.709 0 L -4.709 1.725 L 0 1.725 Z " fill="#2e3092"/>
<path transform="matrix(1,0,0,-1,348.8076,168.0102)" d="M 0 0 L -4.76 0 L -4.76 12.627 C -4.76 13.22 -4.779 13.688 -4.811 14.034 C -4.849 14.379 -4.912 14.655 -5.02 14.857 C -5.292 15.399 -5.856 15.669 -6.706 15.669 C -7.511 15.669 -8.113 15.365 -8.525 14.757 C -8.887 14.132 -9.063 13.296 -9.063 12.246 L -9.063 0 L -13.773 0 L -13.773 24.518 L -9.063 24.518 L -9.063 16.557 C -8.722 17.048 -8.386 17.444 -8.063 17.748 C -7.739 18.053 -7.371 18.281 -6.966 18.433 C -6.554 18.585 -6.18 18.699 -5.851 18.775 C -5.515 18.852 -5.153 18.915 -4.76 18.966 C -3.296 18.966 -2.142 18.575 -1.306 17.799 C -.431 17.073 0 15.882 0 14.224 Z " fill="#2e3092"/>
<path transform="matrix(1,0,0,-1,366.4297,168.0102)" d="M 0 0 L -4.761 0 L -4.761 12.297 C -4.761 12.89 -4.779 13.358 -4.812 13.704 C -4.85 14.05 -4.913 14.31 -5.021 14.478 C -5.293 15.035 -5.857 15.314 -6.706 15.314 C -7.543 15.314 -8.146 15.014 -8.513 14.414 C -8.881 13.815 -9.064 12.991 -9.064 11.942 L -9.064 0 L -13.774 0 L -13.774 18.433 L -9.064 18.433 L -9.064 16.557 C -8.57 17.521 -7.917 18.145 -7.118 18.433 C -6.706 18.585 -6.32 18.702 -5.952 18.788 C -5.585 18.873 -5.186 18.931 -4.761 18.966 C -3.296 18.966 -2.143 18.575 -1.306 17.799 C -.432 17.073 0 15.882 0 14.224 Z " fill="#2e3092"/>
<path transform="matrix(1,0,0,-1,379.5947,161.976)" d="M 0 0 L 0 6.11 C 0 6.754 -.019 7.265 -.051 7.645 C -.089 8.025 -.152 8.326 -.26 8.545 C -.564 9.271 -1.262 9.635 -2.357 9.635 C -3.499 9.635 -4.253 9.271 -4.608 8.545 C -4.817 8.139 -4.919 7.328 -4.919 6.11 L -4.919 0 C -4.919 -1.166 -4.767 -2.019 -4.456 -2.561 C -4.101 -3.001 -3.397 -3.22 -2.357 -3.22 C -1.3 -3.22 -.652 -3.001 -.412 -2.561 C -.272 -2.323 -.171 -2.012 -.102 -1.622 C -.038 -1.232 0 -.693 0 0 M 4.735 2.536 C 4.735 -.811 4.311 -3.108 3.455 -4.36 C 2.535 -5.78 .596 -6.49 -2.357 -6.49 C -5.324 -6.49 -7.302 -5.856 -8.271 -4.589 C -9.197 -3.235 -9.653 -.861 -9.653 2.536 C -9.653 6.253 -9.337 8.782 -8.709 10.117 C -7.752 11.993 -5.635 12.932 -2.357 12.932 C .786 12.932 2.833 11.993 3.791 10.117 C 4.418 8.833 4.735 6.304 4.735 2.536 " fill="#2e3092"/>
<path transform="matrix(1,0,0,-1,0,283.465)" d="M 393.141 115.455 L 388.406 115.455 L 388.406 139.973 L 393.141 139.973 Z " fill="#2e3092"/>
<path transform="matrix(1,0,0,-1,406.7617,161.976)" d="M 0 0 L 0 6.11 C 0 6.754 -.019 7.265 -.05 7.645 C -.088 8.025 -.151 8.326 -.26 8.545 C -.563 9.271 -1.261 9.635 -2.357 9.635 C -3.498 9.635 -4.253 9.271 -4.607 8.545 C -4.816 8.139 -4.918 7.328 -4.918 6.11 L -4.918 0 C -4.918 -1.166 -4.767 -2.019 -4.456 -2.561 C -4.101 -3.001 -3.397 -3.22 -2.357 -3.22 C -1.299 -3.22 -.652 -3.001 -.411 -2.561 C -.272 -2.323 -.171 -2.012 -.101 -1.622 C -.037 -1.232 0 -.693 0 0 M 4.735 2.536 C 4.735 -.811 4.311 -3.108 3.455 -4.36 C 2.536 -5.78 .597 -6.49 -2.357 -6.49 C -5.324 -6.49 -7.302 -5.856 -8.271 -4.589 C -9.197 -3.235 -9.653 -.861 -9.653 2.536 C -9.653 6.253 -9.336 8.782 -8.709 10.117 C -7.752 11.993 -5.635 12.932 -2.357 12.932 C .786 12.932 2.834 11.993 3.791 10.117 C 4.419 8.833 4.735 6.304 4.735 2.536 " fill="#2e3092"/>
<path transform="matrix(1,0,0,-1,423.8701,161.9252)" d="M 0 0 L 0 5.502 C 0 6.127 -.019 6.646 -.051 7.062 C -.089 7.477 -.152 7.819 -.254 8.088 C -.425 8.596 -.665 8.973 -.977 9.217 C -1.287 9.461 -1.705 9.584 -2.231 9.584 C -3.258 9.584 -3.898 9.052 -4.151 7.987 L -4.405 6.01 L -4.405 -.102 C -4.405 -1.014 -4.222 -1.8 -3.841 -2.459 C -3.486 -3.001 -2.973 -3.271 -2.308 -3.271 C -.773 -3.271 0 -2.181 0 0 M 4.71 -5.502 C 4.71 -6.633 4.602 -7.594 4.387 -8.38 C 4.177 -9.165 3.828 -9.821 3.354 -10.345 C 2.174 -11.663 .076 -12.322 -2.947 -12.322 C -3.835 -12.322 -4.614 -12.256 -5.293 -12.119 C -5.965 -11.983 -6.566 -11.755 -7.1 -11.435 C -8.271 -10.74 -8.861 -9.65 -8.861 -8.164 L -4.151 -8.164 C -4.151 -8.452 -4 -8.712 -3.689 -8.95 C -3.537 -9.017 -3.328 -9.076 -3.062 -9.127 C -2.802 -9.178 -2.497 -9.203 -2.155 -9.203 C -1.268 -9.203 -.615 -8.908 -.209 -8.316 C .063 -7.875 .203 -7.216 .203 -6.338 L .203 -4.209 C -.685 -5.765 -2.155 -6.541 -4.202 -6.541 C -6.016 -6.541 -7.327 -5.892 -8.146 -4.589 C -8.456 -4.082 -8.696 -3.461 -8.874 -2.726 C -9.058 -1.99 -9.146 -1.207 -9.146 -.38 L -9.146 6.263 C -9.146 8.611 -8.722 10.304 -7.879 11.334 C -7.029 12.364 -5.806 12.881 -4.202 12.881 C -2.117 12.881 -.735 12.078 -.057 10.472 L 0 12.348 L 4.71 12.348 Z " fill="#2e3092"/>
<path transform="matrix(1,0,0,-1,446.0361,149.57759)" d="M 0 0 L -4.988 -18.686 C -5.482 -20.486 -5.851 -21.665 -6.085 -22.22 C -6.82 -23.937 -8.36 -24.797 -10.699 -24.797 C -11.244 -24.797 -11.941 -24.746 -12.798 -24.647 L -12.798 -21.374 L -12.208 -21.374 L -11.593 -21.374 C -11.099 -21.374 -10.725 -21.313 -10.465 -21.196 C -10.211 -21.079 -10.06 -20.845 -10.002 -20.492 L -10.16 -19.412 C -10.192 -19.209 -10.224 -19.01 -10.249 -18.807 C -10.274 -18.606 -10.338 -18.397 -10.439 -18.179 L -15.409 0 L -10.446 0 L -8.417 -9.768 L -8.019 -12.097 C -7.948 -12.74 -7.892 -13.203 -7.847 -13.488 C -7.803 -13.776 -7.739 -14.183 -7.65 -14.705 C -7.65 -14.335 -7.632 -13.957 -7.6 -13.577 C -7.562 -13.196 -7.492 -12.804 -7.391 -12.398 L -6.852 -9.913 L -4.76 0 Z " fill="#2e3092"/>
<path transform="matrix(1,0,0,-1,192.4722,192.6293)" d="M 0 0 C 0 2.957 -.248 5.036 -.754 6.237 C -1.255 7.438 -2.244 8.037 -3.708 8.037 L -7.068 8.037 L -7.068 -9.305 L -4.862 -9.305 C -2.732 -9.305 -1.344 -8.646 -.716 -7.327 C -.476 -6.785 -.298 -5.924 -.178 -4.741 C -.057 -3.56 0 -1.978 0 0 M 5.204 .405 C 5.204 -2.957 5.033 -5.375 4.69 -6.846 C 4.107 -9.432 2.877 -11.216 1.001 -12.195 C .811 -12.313 .577 -12.421 .298 -12.513 C .013 -12.604 -.286 -12.693 -.615 -12.778 L -2.713 -12.88 L -12.215 -12.88 L -12.215 11.638 L -1.56 11.638 C -.469 11.638 .564 11.375 1.54 10.852 C 2.409 10.329 3.125 9.67 3.689 8.874 C 4.17 8.129 4.551 7.058 4.842 5.654 C 4.963 4.929 5.052 4.13 5.109 3.258 C 5.172 2.387 5.204 1.436 5.204 .405 " fill="#2e3092"/>
<path transform="matrix(1,0,0,-1,210.7334,193.87149)" d="M 0 0 L 0 1.598 C 0 2.525 -.19 3.153 -.564 3.474 C -.906 3.844 -1.553 4.031 -2.51 4.031 C -3.499 4.031 -4.164 3.692 -4.506 3.017 C -4.678 2.545 -4.76 1.774 -4.76 .71 L -4.76 0 Z M 4.608 -3.271 L -4.76 -3.271 L -4.76 -5.983 C -4.76 -7.064 -4.557 -7.825 -4.146 -8.266 C -3.689 -8.637 -3.074 -8.823 -2.301 -8.823 C -1.521 -8.823 -.957 -8.57 -.615 -8.063 C -.304 -7.521 -.152 -6.634 -.152 -5.4 L 4.608 -5.4 C 4.608 -7.581 4.139 -9.213 3.201 -10.294 C 2.143 -11.495 .425 -12.095 -1.946 -12.095 C -4.646 -12.095 -6.579 -11.502 -7.746 -10.319 C -8.918 -9.138 -9.501 -7.15 -9.501 -4.361 L -9.501 .456 C -9.501 5.036 -7.213 7.327 -2.637 7.327 C .406 7.327 2.44 6.617 3.461 5.197 C 3.835 4.69 4.12 3.93 4.317 2.916 C 4.513 1.901 4.608 .669 4.608 -.786 Z " fill="#2e3092"/>
<path transform="matrix(1,0,0,-1,232.7031,187.0766)" d="M 0 0 L -4.659 -18.433 L -10.598 -18.433 L -15.365 0 L -10.313 0 L -8.253 -10.338 C -8.202 -10.576 -8.158 -10.826 -8.126 -11.09 C -8.088 -11.353 -7.999 -12.05 -7.847 -13.182 L -7.644 -15.796 L -7.346 -12.931 C -7.295 -12.49 -7.239 -12.063 -7.182 -11.65 C -7.125 -11.235 -7.036 -10.801 -6.916 -10.345 L -4.855 -.003 Z " fill="#2e3092"/>
<path transform="matrix(1,0,0,-1,243.9731,193.87149)" d="M 0 0 L 0 1.598 C 0 2.525 -.19 3.153 -.564 3.474 C -.906 3.844 -1.559 4.031 -2.51 4.031 C -3.505 4.031 -4.17 3.692 -4.506 3.017 C -4.678 2.545 -4.767 1.774 -4.767 .71 L -4.767 0 Z M 4.608 -3.271 L -4.767 -3.271 L -4.767 -5.983 C -4.767 -7.064 -4.563 -7.825 -4.151 -8.266 C -3.689 -8.637 -3.074 -8.823 -2.307 -8.823 C -1.521 -8.823 -.957 -8.57 -.615 -8.063 C -.311 -7.521 -.158 -6.634 -.158 -5.4 L 4.608 -5.4 C 4.608 -7.581 4.139 -9.213 3.201 -10.294 C 2.143 -11.495 .425 -12.095 -1.946 -12.095 C -4.646 -12.095 -6.579 -11.502 -7.746 -10.319 C -8.918 -9.138 -9.501 -7.15 -9.501 -4.361 L -9.501 .456 C -9.501 5.036 -7.213 7.327 -2.637 7.327 C .406 7.327 2.44 6.617 3.461 5.197 C 3.835 4.69 4.12 3.93 4.311 2.916 C 4.507 1.901 4.608 .669 4.608 -.786 Z " fill="#2e3092"/>
<path transform="matrix(1,0,0,-1,0,283.465)" d="M 257.671 77.956 L 252.93599 77.956 L 252.93599 102.474 L 257.671 102.474 Z " fill="#2e3092"/>
<path transform="matrix(1,0,0,-1,271.293,199.475)" d="M 0 0 L 0 6.11 C 0 6.754 -.013 7.264 -.051 7.645 C -.083 8.024 -.152 8.326 -.253 8.545 C -.564 9.271 -1.261 9.635 -2.352 9.635 C -3.499 9.635 -4.247 9.271 -4.608 8.545 C -4.811 8.139 -4.913 7.327 -4.913 6.11 L -4.913 0 C -4.913 -1.166 -4.76 -2.019 -4.456 -2.561 C -4.095 -3.001 -3.397 -3.22 -2.352 -3.22 C -1.293 -3.22 -.646 -3.001 -.406 -2.561 C -.272 -2.323 -.171 -2.013 -.102 -1.623 C -.032 -1.232 0 -.694 0 0 M 4.741 2.535 C 4.741 -.812 4.31 -3.109 3.461 -4.361 C 2.535 -5.781 .602 -6.491 -2.352 -6.491 C -5.325 -6.491 -7.296 -5.856 -8.272 -4.589 C -9.191 -3.236 -9.654 -.862 -9.654 2.535 C -9.654 6.253 -9.337 8.782 -8.703 10.116 C -7.746 11.993 -5.629 12.931 -2.352 12.931 C .786 12.931 2.833 11.993 3.791 10.116 C 4.424 8.833 4.741 6.304 4.741 2.535 " fill="#2e3092"/>
<path transform="matrix(1,0,0,-1,288.5527,199.52579)" d="M 0 0 L 0 6.11 C 0 7.413 -.069 8.24 -.202 8.596 C -.456 9.321 -1.09 9.686 -2.098 9.686 C -3.239 9.686 -3.942 8.985 -4.196 7.581 C -4.297 6.937 -4.354 6.278 -4.354 5.604 L -4.354 .102 C -4.354 -2.079 -3.581 -3.169 -2.047 -3.169 C -1.433 -3.169 -.919 -2.881 -.513 -2.308 C -.171 -1.664 0 -.896 0 0 M 4.767 -.329 C 4.767 -2.069 4.45 -3.458 3.816 -4.487 C 2.998 -5.79 1.674 -6.44 -.152 -6.44 C -1.16 -6.44 -1.99 -6.288 -2.637 -5.983 C -3.283 -5.68 -3.892 -5.036 -4.456 -4.057 L -4.557 -12.17 L -9.013 -12.17 L -9.013 12.449 L -4.354 12.449 L -4.354 10.522 C -3.924 11.384 -3.359 12.009 -2.662 12.398 C -2.301 12.585 -1.92 12.729 -1.509 12.829 C -1.097 12.931 -.646 12.981 -.152 12.981 C 1.42 12.981 2.631 12.497 3.486 11.523 C 4.336 10.551 4.767 8.833 4.767 6.364 Z " fill="#2e3092"/>
<path transform="matrix(1,0,0,-1,320.8994,205.50919)" d="M 0 0 L -4.717 0 L -4.717 12.475 C -4.717 13.827 -4.9 14.689 -5.274 15.061 C -5.616 15.466 -6.181 15.669 -6.967 15.669 C -7.904 15.669 -8.558 15.381 -8.912 14.807 C -9.223 14.265 -9.375 13.378 -9.375 12.145 L -9.375 0 L -14.136 0 L -14.136 12.677 C -14.136 13.625 -14.25 14.335 -14.472 14.807 C -14.795 15.381 -15.46 15.669 -16.468 15.669 C -17.457 15.669 -18.098 15.374 -18.389 14.781 C -18.681 14.188 -18.826 13.311 -18.826 12.145 L -18.826 0 L -23.485 0 L -23.485 18.433 L -18.826 18.433 L -18.826 16.557 C -18.534 17.028 -18.236 17.415 -17.938 17.71 C -17.641 18.005 -17.273 18.245 -16.823 18.433 C -16.348 18.601 -15.91 18.733 -15.505 18.825 C -15.105 18.917 -14.674 18.965 -14.212 18.965 C -13.261 18.965 -12.31 18.753 -11.372 18.331 C -10.535 17.977 -10.016 17.384 -9.813 16.557 C -8.938 18.163 -7.341 18.965 -5.021 18.965 C -3.436 18.965 -2.2 18.588 -1.318 17.837 C -.444 17.086 0 16.142 0 15.01 Z " fill="#2e3092"/>
<path transform="matrix(1,0,0,-1,334.1152,193.87149)" d="M 0 0 L 0 1.598 C 0 2.525 -.19 3.153 -.564 3.474 C -.906 3.844 -1.56 4.031 -2.51 4.031 C -3.506 4.031 -4.171 3.692 -4.507 3.017 C -4.678 2.545 -4.767 1.774 -4.767 .71 L -4.767 0 Z M 4.608 -3.271 L -4.767 -3.271 L -4.767 -5.983 C -4.767 -7.064 -4.563 -7.825 -4.152 -8.266 C -3.689 -8.637 -3.074 -8.823 -2.308 -8.823 C -1.521 -8.823 -.957 -8.57 -.615 -8.063 C -.311 -7.521 -.158 -6.634 -.158 -5.4 L 4.608 -5.4 C 4.608 -7.581 4.139 -9.213 3.201 -10.294 C 2.143 -11.495 .425 -12.095 -1.946 -12.095 C -4.646 -12.095 -6.58 -11.502 -7.746 -10.319 C -8.919 -9.138 -9.502 -7.15 -9.502 -4.361 L -9.502 .456 C -9.502 5.036 -7.214 7.327 -2.637 7.327 C .405 7.327 2.44 6.617 3.461 5.197 C 3.835 4.69 4.12 3.93 4.311 2.916 C 4.507 1.901 4.608 .669 4.608 -.786 Z " fill="#2e3092"/>
<path transform="matrix(1,0,0,-1,356.3379,205.50919)" d="M 0 0 L -4.76 0 L -4.76 12.297 C -4.76 12.89 -4.779 13.358 -4.811 13.704 C -4.849 14.05 -4.912 14.31 -5.02 14.478 C -5.292 15.035 -5.856 15.313 -6.706 15.313 C -7.543 15.313 -8.145 15.013 -8.513 14.414 C -8.88 13.814 -9.063 12.991 -9.063 11.941 L -9.063 0 L -13.773 0 L -13.773 18.433 L -9.063 18.433 L -9.063 16.557 C -8.569 17.52 -7.916 18.145 -7.118 18.433 C -6.706 18.585 -6.319 18.702 -5.951 18.787 C -5.584 18.873 -5.185 18.93 -4.76 18.965 C -3.296 18.965 -2.142 18.575 -1.306 17.799 C -.431 17.073 0 15.881 0 14.224 Z " fill="#2e3092"/>
<path transform="matrix(1,0,0,-1,367.1455,205.56)" d="M 0 0 C -.799 -.102 -1.622 -.152 -2.459 -.152 C -3.125 -.152 -3.708 -.111 -4.209 -.025 C -4.716 .061 -5.128 .203 -5.451 .405 C -6.326 .896 -6.757 1.733 -6.757 2.916 L -6.757 15.364 L -8.652 15.364 L -8.652 18.483 L -6.757 18.483 L -6.757 23.58 L -2.047 23.58 L -2.047 18.483 L 0 18.483 L 0 15.364 L -2.047 15.364 L -2.047 3.955 C -2.047 3.752 -1.883 3.575 -1.56 3.423 C -1.306 3.321 -.988 3.271 -.614 3.271 L -.304 3.271 C -.171 3.271 -.069 3.286 0 3.321 Z " fill="#2e3092"/>
<path transform="matrix(1,0,0,-1,400.7979,196.7875)" d="M 0 0 L -.102 -1.395 C -.102 -3.813 -.666 -5.68 -1.794 -6.998 C -3.056 -8.535 -5.027 -9.305 -7.708 -9.305 C -11.53 -9.305 -14.065 -8.25 -15.314 -6.136 C -15.739 -5.391 -16.068 -4.349 -16.291 -3.005 C -16.513 -1.66 -16.62 .016 -16.62 2.028 L -16.62 5.502 C -16.62 7.444 -16.513 9.042 -16.304 10.294 C -16.088 11.546 -15.739 12.541 -15.264 13.286 C -14.002 15.365 -11.479 16.404 -7.708 16.404 C -3.17 16.404 -.685 14.291 -.254 10.065 L -.203 9.153 C -.203 8.662 -.172 8.352 -.102 8.215 L -5.173 8.215 C -5.255 9.062 -5.312 9.594 -5.338 9.813 C -5.363 10.031 -5.426 10.431 -5.534 11.004 C -5.876 12.154 -6.593 12.729 -7.689 12.729 C -9.185 12.729 -10.237 12.085 -10.858 10.801 C -11.062 10.345 -11.213 9.841 -11.309 9.293 C -11.403 8.744 -11.448 8.088 -11.448 7.327 L -11.448 6.542 L -11.448 -.254 C -11.448 -1.825 -11.271 -2.967 -10.909 -3.677 C -10.332 -4.96 -9.261 -5.604 -7.708 -5.604 C -6.497 -5.604 -5.712 -4.878 -5.351 -3.423 C -5.3 -3.186 -5.255 -2.726 -5.211 -2.041 C -5.173 -1.356 -5.147 -.675 -5.147 0 Z " fill="#2e3092"/>
<path transform="matrix(1,0,0,-1,413.3672,199.475)" d="M 0 0 L 0 6.11 C 0 6.754 -.013 7.264 -.051 7.645 C -.083 8.024 -.152 8.326 -.254 8.545 C -.564 9.271 -1.262 9.635 -2.352 9.635 C -3.499 9.635 -4.247 9.271 -4.608 8.545 C -4.812 8.139 -4.912 7.327 -4.912 6.11 L -4.912 0 C -4.912 -1.166 -4.761 -2.019 -4.456 -2.561 C -4.095 -3.001 -3.397 -3.22 -2.352 -3.22 C -1.293 -3.22 -.646 -3.001 -.406 -2.561 C -.272 -2.323 -.171 -2.013 -.102 -1.623 C -.032 -1.232 0 -.694 0 0 M 4.741 2.535 C 4.741 -.812 4.311 -3.109 3.461 -4.361 C 2.535 -5.781 .602 -6.491 -2.352 -6.491 C -5.324 -6.491 -7.296 -5.856 -8.272 -4.589 C -9.191 -3.236 -9.654 -.862 -9.654 2.535 C -9.654 6.253 -9.337 8.782 -8.703 10.116 C -7.746 11.993 -5.629 12.931 -2.352 12.931 C .786 12.931 2.833 11.993 3.79 10.116 C 4.424 8.833 4.741 6.304 4.741 2.535 " fill="#2e3092"/>
<path transform="matrix(1,0,0,-1,426.5322,203.17719)" d="M 0 0 C 0 -.624 -.26 -1.232 -.767 -1.825 C -1.318 -2.332 -1.927 -2.586 -2.611 -2.586 C -3.245 -2.586 -3.86 -2.332 -4.456 -1.825 C -4.988 -1.268 -5.248 -.659 -5.248 0 C -5.248 .609 -4.988 1.218 -4.456 1.826 C -3.892 2.349 -3.277 2.612 -2.611 2.612 C -1.996 2.612 -1.382 2.349 -.767 1.826 C -.26 1.284 0 .676 0 0 " fill="#2e3092"/>
<path transform="matrix(1,0,0,-1,435.3682,203.7319)" d="M 0 0 C 0 -1.232 -.367 -2.36 -1.09 -3.381 C -1.819 -4.405 -2.731 -5.185 -3.841 -5.727 L -5.096 -4.459 C -4.792 -4.357 -4.513 -4.23 -4.266 -4.078 C -4.019 -3.927 -3.777 -3.733 -3.537 -3.498 C -2.973 -2.991 -2.643 -2.386 -2.535 -1.676 L -3.15 -1.777 C -3.854 -1.777 -4.449 -1.533 -4.944 -1.042 C -5.438 -.551 -5.686 .048 -5.686 .758 C -5.686 1.452 -5.438 2.041 -4.944 2.533 C -4.69 2.771 -4.418 2.951 -4.126 3.078 C -3.835 3.205 -3.512 3.268 -3.15 3.268 C -2.25 3.268 -1.496 2.954 -.899 2.33 C -.304 1.705 0 .929 0 0 " fill="#2e3092"/>
<path transform="matrix(1,0,0,-1,453.6494,205.50919)" d="M 0 0 L -14.516 0 L -14.516 24.518 L -9.42 24.518 L -9.42 3.575 L 0 3.575 Z " fill="#2e3092"/>
<path transform="matrix(1,0,0,-1,463.4609,205.56)" d="M 0 0 C -.805 -.102 -1.622 -.152 -2.459 -.152 C -3.125 -.152 -3.708 -.111 -4.215 -.025 C -4.716 .061 -5.134 .203 -5.457 .405 C -6.325 .896 -6.763 1.733 -6.763 2.916 L -6.763 15.364 L -8.658 15.364 L -8.658 18.483 L -6.763 18.483 L -6.763 23.58 L -2.054 23.58 L -2.054 18.483 L 0 18.483 L 0 15.364 L -2.054 15.364 L -2.054 3.955 C -2.054 3.752 -1.889 3.575 -1.565 3.423 C -1.306 3.321 -.995 3.271 -.614 3.271 L -.311 3.271 C -.171 3.271 -.069 3.286 0 3.321 Z " fill="#2e3092"/>
<path transform="matrix(1,0,0,-1,474.8584,199.42429)" d="M 0 0 L 0 5.502 C 0 6.126 -.02 6.646 -.058 7.062 C -.089 7.477 -.159 7.818 -.26 8.088 C -.432 8.595 -.672 8.973 -.989 9.217 C -1.306 9.46 -1.73 9.584 -2.257 9.584 C -3.296 9.584 -3.949 9.052 -4.203 7.986 L -4.405 6.009 L -4.405 -.102 C -4.405 -1.015 -4.222 -1.8 -3.842 -2.459 C -3.486 -3.001 -2.973 -3.271 -2.308 -3.271 C -.773 -3.271 0 -2.181 0 0 M 4.709 -6.085 L 0 -6.085 L 0 -4.107 C -.501 -5.005 -1.078 -5.645 -1.743 -6.034 C -2.428 -6.374 -3.227 -6.542 -4.152 -6.542 C -5.946 -6.542 -7.277 -5.892 -8.146 -4.589 C -8.456 -4.082 -8.697 -3.461 -8.874 -2.726 C -9.059 -1.99 -9.146 -1.208 -9.146 -.381 L -9.146 6.313 C -9.146 8.662 -8.716 10.345 -7.866 11.358 C -7.011 12.373 -5.774 12.88 -4.152 12.88 C -3.094 12.88 -2.257 12.702 -1.642 12.348 C -1.078 12.078 -.514 11.45 .051 10.472 L 0 12.145 L 0 18.433 L 4.709 18.433 Z " fill="#2e3092"/>
<path transform="matrix(1,0,0,-1,488.5303,203.17719)" d="M 0 0 C 0 -.624 -.26 -1.232 -.767 -1.825 C -1.318 -2.332 -1.927 -2.586 -2.611 -2.586 C -3.245 -2.586 -3.86 -2.332 -4.456 -1.825 C -4.988 -1.268 -5.248 -.659 -5.248 0 C -5.248 .609 -4.988 1.218 -4.456 1.826 C -3.892 2.349 -3.276 2.612 -2.611 2.612 C -1.996 2.612 -1.382 2.349 -.767 1.826 C -.26 1.284 0 .676 0 0 " fill="#2e3092"/>
</g>
<clipPath id="cp1">
<path transform="matrix(1,0,0,-1,0,283.465)" d="M 23.869 147.748 C 23.869 108.005 56.085 75.79 95.832 75.79 C 135.572 75.79 167.788 108.005 167.788 147.748 C 167.788 187.477 135.572 219.695 95.832 219.695 C 56.085 219.695 23.869 187.477 23.869 147.748 "/>
</clipPath>
<g clip-path="url(#cp1)">
<path transform="matrix(1,0,0,-1,23.8687,63.7695)" d="M 0 0 L 0 -143.906 Z " fill="#2e3092"/>
<path transform="matrix(1,0,0,-1,0,283.465)" d="M 24.433 75.79 L 23.869002 75.79 L 23.869002 219.69602 L 24.433 219.69602 Z " fill="#2e3092"/>
<path transform="matrix(1,0,0,-1,0,283.465)" d="M 24.998 75.79 L 24.434 75.79 L 24.434 219.69602 L 24.998 219.69602 Z " fill="#2e3192"/>
<path transform="matrix(1,0,0,-1,0,283.465)" d="M 25.562 75.79 L 24.998002 75.79 L 24.998002 219.69602 L 25.562 219.69602 Z " fill="#2d3293"/>
<path transform="matrix(1,0,0,-1,0,283.465)" d="M 26.126 75.79 L 25.562 75.79 L 25.562 219.69602 L 26.126 219.69602 Z " fill="#2d3293"/>
<path transform="matrix(1,0,0,-1,0,283.465)" d="M 26.691 75.79 L 26.127 75.79 L 26.127 219.69602 L 26.691 219.69602 Z " fill="#2c3393"/>
<path transform="matrix(1,0,0,-1,0,283.465)" d="M 27.255 75.79 L 26.691 75.79 L 26.691 219.69602 L 27.255 219.69602 Z " fill="#2c3494"/>
<path transform="matrix(1,0,0,-1,0,283.465)" d="M 27.819 75.79 L 27.255002 75.79 L 27.255002 219.69602 L 27.819 219.69602 Z " fill="#2c3494"/>
<path transform="matrix(1,0,0,-1,0,283.465)" d="M 28.384 75.79 L 27.820002 75.79 L 27.820002 219.69602 L 28.384 219.69602 Z " fill="#2b3594"/>
<path transform="matrix(1,0,0,-1,0,283.465)" d="M 28.948 75.79 L 28.384 75.79 L 28.384 219.69602 L 28.948 219.69602 Z " fill="#2b3594"/>
<path transform="matrix(1,0,0,-1,0,283.465)" d="M 29.513 75.79 L 28.949002 75.79 L 28.949002 219.69602 L 29.513 219.69602 Z " fill="#2a3695"/>
<path transform="matrix(1,0,0,-1,0,283.465)" d="M 30.077 75.79 L 29.513 75.79 L 29.513 219.69602 L 30.077 219.69602 Z " fill="#2a3695"/>
<path transform="matrix(1,0,0,-1,0,283.465)" d="M 30.642 75.79 L 30.078001 75.79 L 30.078001 219.69602 L 30.642 219.69602 Z " fill="#293795"/>
<path transform="matrix(1,0,0,-1,0,283.465)" d="M 31.206 75.79 L 30.642 75.79 L 30.642 219.69602 L 31.206 219.69602 Z " fill="#293896"/>
<path transform="matrix(1,0,0,-1,0,283.465)" d="M 31.77 75.79 L 31.206002 75.79 L 31.206002 219.69602 L 31.77 219.69602 Z " fill="#283896"/>
<path transform="matrix(1,0,0,-1,0,283.465)" d="M 32.334 75.79 L 31.77 75.79 L 31.77 219.69602 L 32.334 219.69602 Z " fill="#283996"/>
<path transform="matrix(1,0,0,-1,0,283.465)" d="M 32.899 75.79 L 32.335 75.79 L 32.335 219.69602 L 32.899 219.69602 Z " fill="#283a97"/>
<path transform="matrix(1,0,0,-1,0,283.465)" d="M 33.463 75.79 L 32.899003 75.79 L 32.899003 219.69602 L 33.463 219.69602 Z " fill="#273a97"/>
<path transform="matrix(1,0,0,-1,0,283.465)" d="M 34.028 75.79 L 33.464 75.79 L 33.464 219.69602 L 34.028 219.69602 Z " fill="#263b97"/>
<path transform="matrix(1,0,0,-1,0,283.465)" d="M 34.592 75.79 L 34.028 75.79 L 34.028 219.69602 L 34.592 219.69602 Z " fill="#263b97"/>
<path transform="matrix(1,0,0,-1,0,283.465)" d="M 35.157 75.79 L 34.593004 75.79 L 34.593004 219.69602 L 35.157 219.69602 Z " fill="#253c98"/>
<path transform="matrix(1,0,0,-1,0,283.465)" d="M 35.721 75.79 L 35.157 75.79 L 35.157 219.69602 L 35.721 219.69602 Z " fill="#243c98"/>
<path transform="matrix(1,0,0,-1,0,283.465)" d="M 36.285 75.79 L 35.721 75.79 L 35.721 219.69602 L 36.285 219.69602 Z " fill="#243d98"/>
<path transform="matrix(1,0,0,-1,0,283.465)" d="M 36.85 75.79 L 36.286 75.79 L 36.286 219.69602 L 36.85 219.69602 Z " fill="#233e99"/>
<path transform="matrix(1,0,0,-1,0,283.465)" d="M 37.414 75.79 L 36.850004 75.79 L 36.850004 219.69602 L 37.414 219.69602 Z " fill="#223e99"/>
<path transform="matrix(1,0,0,-1,0,283.465)" d="M 37.979 75.79 L 37.415 75.79 L 37.415 219.69602 L 37.979 219.69602 Z " fill="#223f99"/>
<path transform="matrix(1,0,0,-1,0,283.465)" d="M 38.543 75.79 L 37.979 75.79 L 37.979 219.69602 L 38.543 219.69602 Z " fill="#213f99"/>
<path transform="matrix(1,0,0,-1,0,283.465)" d="M 39.107 75.79 L 38.543 75.79 L 38.543 219.69602 L 39.107 219.69602 Z " fill="#20409a"/>
<path transform="matrix(1,0,0,-1,0,283.465)" d="M 39.672 75.79 L 39.108 75.79 L 39.108 219.69602 L 39.672 219.69602 Z " fill="#20409a"/>
<path transform="matrix(1,0,0,-1,0,283.465)" d="M 40.236 75.79 L 39.672 75.79 L 39.672 219.69602 L 40.236 219.69602 Z " fill="#1f419a"/>
<path transform="matrix(1,0,0,-1,0,283.465)" d="M 40.8 75.79 L 40.236 75.79 L 40.236 219.69602 L 40.8 219.69602 Z " fill="#1e429b"/>
<path transform="matrix(1,0,0,-1,0,283.465)" d="M 41.365 75.79 L 40.801004 75.79 L 40.801004 219.69602 L 41.365 219.69602 Z " fill="#1e429b"/>
<path transform="matrix(1,0,0,-1,0,283.465)" d="M 41.929 75.79 L 41.365 75.79 L 41.365 219.69602 L 41.929 219.69602 Z " fill="#1d439b"/>
<path transform="matrix(1,0,0,-1,0,283.465)" d="M 42.494 75.79 L 41.93 75.79 L 41.93 219.69602 L 42.494 219.69602 Z " fill="#1c439c"/>
<path transform="matrix(1,0,0,-1,0,283.465)" d="M 43.058 75.79 L 42.494 75.79 L 42.494 219.69602 L 43.058 219.69602 Z " fill="#1b449c"/>
<path transform="matrix(1,0,0,-1,0,283.465)" d="M 43.623 75.79 L 43.059003 75.79 L 43.059003 219.69602 L 43.623 219.69602 Z " fill="#1a449c"/>
<path transform="matrix(1,0,0,-1,0,283.465)" d="M 44.187 75.79 L 43.623 75.79 L 43.623 219.69602 L 44.187 219.69602 Z " fill="#18459d"/>
<path transform="matrix(1,0,0,-1,0,283.465)" d="M 44.751 75.79 L 44.187 75.79 L 44.187 219.69602 L 44.751 219.69602 Z " fill="#17469d"/>
<path transform="matrix(1,0,0,-1,0,283.465)" d="M 45.315 75.79 L 44.751 75.79 L 44.751 219.69602 L 45.315 219.69602 Z " fill="#16469d"/>
<path transform="matrix(1,0,0,-1,0,283.465)" d="M 45.88 75.79 L 45.316 75.79 L 45.316 219.69602 L 45.88 219.69602 Z " fill="#15479e"/>
<path transform="matrix(1,0,0,-1,0,283.465)" d="M 46.444 75.79 L 45.88 75.79 L 45.88 219.69602 L 46.444 219.69602 Z " fill="#13479e"/>
<path transform="matrix(1,0,0,-1,0,283.465)" d="M 47.009 75.79 L 46.445 75.79 L 46.445 219.69602 L 47.009 219.69602 Z " fill="#12489e"/>
<path transform="matrix(1,0,0,-1,0,283.465)" d="M 47.573 75.79 L 47.009004 75.79 L 47.009004 219.69602 L 47.573 219.69602 Z " fill="#11489f"/>
<path transform="matrix(1,0,0,-1,0,283.465)" d="M 48.138 75.79 L 47.574 75.79 L 47.574 219.69602 L 48.138 219.69602 Z " fill="#10499f"/>
<path transform="matrix(1,0,0,-1,0,283.465)" d="M 48.702 75.79 L 48.138 75.79 L 48.138 219.69602 L 48.702 219.69602 Z " fill="#0f499f"/>
<path transform="matrix(1,0,0,-1,0,283.465)" d="M 49.266 75.79 L 48.702 75.79 L 48.702 219.69602 L 49.266 219.69602 Z " fill="#0d4aa0"/>
<path transform="matrix(1,0,0,-1,0,283.465)" d="M 49.831 75.79 L 49.267004 75.79 L 49.267004 219.69602 L 49.831 219.69602 Z " fill="#0c4ba0"/>
<path transform="matrix(1,0,0,-1,0,283.465)" d="M 50.395 75.79 L 49.831 75.79 L 49.831 219.69602 L 50.395 219.69602 Z " fill="#0b4ba0"/>
<path transform="matrix(1,0,0,-1,0,283.465)" d="M 50.959 75.79 L 50.395 75.79 L 50.395 219.69602 L 50.959 219.69602 Z " fill="#0a4ca1"/>
<path transform="matrix(1,0,0,-1,0,283.465)" d="M 51.524 75.79 L 50.96 75.79 L 50.96 219.69602 L 51.524 219.69602 Z " fill="#094ca1"/>
<path transform="matrix(1,0,0,-1,0,283.465)" d="M 52.088 75.79 L 51.524003 75.79 L 51.524003 219.69602 L 52.088 219.69602 Z " fill="#084da1"/>
<path transform="matrix(1,0,0,-1,0,283.465)" d="M 52.653 75.79 L 52.089 75.79 L 52.089 219.69602 L 52.653 219.69602 Z " fill="#084da2"/>
<path transform="matrix(1,0,0,-1,0,283.465)" d="M 53.217 75.79 L 52.653 75.79 L 52.653 219.69602 L 53.217 219.69602 Z " fill="#074ea2"/>
<path transform="matrix(1,0,0,-1,0,283.465)" d="M 53.781 75.79 L 53.217 75.79 L 53.217 219.69602 L 53.781 219.69602 Z " fill="#064ea2"/>
<path transform="matrix(1,0,0,-1,0,283.465)" d="M 54.346 75.79 L 53.782 75.79 L 53.782 219.69602 L 54.346 219.69602 Z " fill="#064fa3"/>
<path transform="matrix(1,0,0,-1,0,283.465)" d="M 54.91 75.79 L 54.346 75.79 L 54.346 219.69602 L 54.91 219.69602 Z " fill="#054fa3"/>
<path transform="matrix(1,0,0,-1,0,283.465)" d="M 55.475 75.79 L 54.911 75.79 L 54.911 219.69602 L 55.475 219.69602 Z " fill="#0550a3"/>
<path transform="matrix(1,0,0,-1,0,283.465)" d="M 56.039 75.79 L 55.475004 75.79 L 55.475004 219.69602 L 56.039 219.69602 Z " fill="#0450a4"/>
<path transform="matrix(1,0,0,-1,0,283.465)" d="M 56.604 75.79 L 56.04 75.79 L 56.04 219.69602 L 56.604 219.69602 Z " fill="#0451a4"/>
<path transform="matrix(1,0,0,-1,0,283.465)" d="M 57.167 75.79 L 56.603 75.79 L 56.603 219.69602 L 57.167 219.69602 Z " fill="#0351a4"/>
<path transform="matrix(1,0,0,-1,0,283.465)" d="M 57.732 75.79 L 57.168 75.79 L 57.168 219.69602 L 57.732 219.69602 Z " fill="#0352a5"/>
<path transform="matrix(1,0,0,-1,0,283.465)" d="M 58.296 75.79 L 57.732004 75.79 L 57.732004 219.69602 L 58.296 219.69602 Z " fill="#0252a5"/>
<path transform="matrix(1,0,0,-1,0,283.465)" d="M 58.861 75.79 L 58.297 75.79 L 58.297 219.69602 L 58.861 219.69602 Z " fill="#0153a5"/>
<path transform="matrix(1,0,0,-1,0,283.465)" d="M 59.425 75.79 L 58.861 75.79 L 58.861 219.69602 L 59.425 219.69602 Z " fill="#0153a6"/>
<path transform="matrix(1,0,0,-1,0,283.465)" d="M 59.99 75.79 L 59.426004 75.79 L 59.426004 219.69602 L 59.99 219.69602 Z " fill="#0054a6"/>
<path transform="matrix(1,0,0,-1,0,283.465)" d="M 60.554 75.79 L 59.99 75.79 L 59.99 219.69602 L 60.554 219.69602 Z " fill="#0054a6"/>
<path transform="matrix(1,0,0,-1,0,283.465)" d="M 61.119 75.79 L 60.555 75.79 L 60.555 219.69602 L 61.119 219.69602 Z " fill="#0055a7"/>
<path transform="matrix(1,0,0,-1,0,283.465)" d="M 61.683 75.79 L 61.119 75.79 L 61.119 219.69602 L 61.683 219.69602 Z " fill="#0055a7"/>
<path transform="matrix(1,0,0,-1,0,283.465)" d="M 62.247 75.79 L 61.683004 75.79 L 61.683004 219.69602 L 62.247 219.69602 Z " fill="#0056a7"/>
<path transform="matrix(1,0,0,-1,0,283.465)" d="M 62.812 75.79 L 62.248 75.79 L 62.248 219.69602 L 62.812 219.69602 Z " fill="#0056a8"/>
<path transform="matrix(1,0,0,-1,0,283.465)" d="M 63.376 75.79 L 62.812 75.79 L 62.812 219.69602 L 63.376 219.69602 Z " fill="#0057a8"/>
<path transform="matrix(1,0,0,-1,0,283.465)" d="M 63.94 75.79 L 63.376 75.79 L 63.376 219.69602 L 63.94 219.69602 Z " fill="#0057a8"/>
<path transform="matrix(1,0,0,-1,0,283.465)" d="M 64.505 75.79 L 63.940999 75.79 L 63.940999 219.69602 L 64.505 219.69602 Z " fill="#0058a9"/>
<path transform="matrix(1,0,0,-1,0,283.465)" d="M 65.069 75.79 L 64.505 75.79 L 64.505 219.69602 L 65.069 219.69602 Z " fill="#0058a9"/>
<path transform="matrix(1,0,0,-1,0,283.465)" d="M 65.633 75.79 L 65.069 75.79 L 65.069 219.69602 L 65.633 219.69602 Z " fill="#0059a9"/>
<path transform="matrix(1,0,0,-1,0,283.465)" d="M 66.198 75.79 L 65.633998 75.79 L 65.633998 219.69602 L 66.198 219.69602 Z " fill="#0059aa"/>
<path transform="matrix(1,0,0,-1,0,283.465)" d="M 66.762 75.79 L 66.198 75.79 L 66.198 219.69602 L 66.762 219.69602 Z " fill="#005aaa"/>
<path transform="matrix(1,0,0,-1,0,283.465)" d="M 67.327 75.79 L 66.763 75.79 L 66.763 219.69602 L 67.327 219.69602 Z " fill="#005aaa"/>
<path transform="matrix(1,0,0,-1,0,283.465)" d="M 67.891 75.79 L 67.326999 75.79 L 67.326999 219.69602 L 67.891 219.69602 Z " fill="#005bab"/>
<path transform="matrix(1,0,0,-1,0,283.465)" d="M 68.456 75.79 L 67.892 75.79 L 67.892 219.69602 L 68.456 219.69602 Z " fill="#005bab"/>
<path transform="matrix(1,0,0,-1,0,283.465)" d="M 69.02 75.79 L 68.45599 75.79 L 68.45599 219.69602 L 69.02 219.69602 Z " fill="#005cab"/>
<path transform="matrix(1,0,0,-1,0,283.465)" d="M 69.584 75.79 L 69.02 75.79 L 69.02 219.69602 L 69.584 219.69602 Z " fill="#005cac"/>
<path transform="matrix(1,0,0,-1,0,283.465)" d="M 70.148 75.79 L 69.584 75.79 L 69.584 219.69602 L 70.148 219.69602 Z " fill="#005dac"/>
<path transform="matrix(1,0,0,-1,0,283.465)" d="M 70.713 75.79 L 70.148998 75.79 L 70.148998 219.69602 L 70.713 219.69602 Z " fill="#005dac"/>
<path transform="matrix(1,0,0,-1,0,283.465)" d="M 71.277 75.79 L 70.713 75.79 L 70.713 219.69602 L 71.277 219.69602 Z " fill="#005ead"/>
<path transform="matrix(1,0,0,-1,0,283.465)" d="M 71.842 75.79 L 71.278 75.79 L 71.278 219.69602 L 71.842 219.69602 Z " fill="#005ead"/>
<path transform="matrix(1,0,0,-1,0,283.465)" d="M 72.406 75.79 L 71.841999 75.79 L 71.841999 219.69602 L 72.406 219.69602 Z " fill="#005fad"/>
<path transform="matrix(1,0,0,-1,0,283.465)" d="M 72.971 75.79 L 72.407 75.79 L 72.407 219.69602 L 72.971 219.69602 Z " fill="#005fae"/>
<path transform="matrix(1,0,0,-1,0,283.465)" d="M 73.535 75.79 L 72.971 75.79 L 72.971 219.69602 L 73.535 219.69602 Z " fill="#0060ae"/>
<path transform="matrix(1,0,0,-1,0,283.465)" d="M 74.099 75.79 L 73.534999 75.79 L 73.534999 219.69602 L 74.099 219.69602 Z " fill="#0060ae"/>
<path transform="matrix(1,0,0,-1,0,283.465)" d="M 74.664 75.79 L 74.1 75.79 L 74.1 219.69602 L 74.664 219.69602 Z " fill="#0060af"/>
<path transform="matrix(1,0,0,-1,0,283.465)" d="M 75.228 75.79 L 74.663997 75.79 L 74.663997 219.69602 L 75.228 219.69602 Z " fill="#0061af"/>
<path transform="matrix(1,0,0,-1,0,283.465)" d="M 75.792 75.79 L 75.228 75.79 L 75.228 219.69602 L 75.792 219.69602 Z " fill="#0061af"/>
<path transform="matrix(1,0,0,-1,0,283.465)" d="M 76.357 75.79 L 75.793 75.79 L 75.793 219.69602 L 76.357 219.69602 Z " fill="#0062b0"/>
<path transform="matrix(1,0,0,-1,0,283.465)" d="M 76.921 75.79 L 76.356998 75.79 L 76.356998 219.69602 L 76.921 219.69602 Z " fill="#0062b0"/>
<path transform="matrix(1,0,0,-1,0,283.465)" d="M 77.486 75.79 L 76.922 75.79 L 76.922 219.69602 L 77.486 219.69602 Z " fill="#0063b0"/>
<path transform="matrix(1,0,0,-1,0,283.465)" d="M 78.05 75.79 L 77.486 75.79 L 77.486 219.69602 L 78.05 219.69602 Z " fill="#0063b1"/>
<path transform="matrix(1,0,0,-1,0,283.465)" d="M 78.614 75.79 L 78.049999 75.79 L 78.049999 219.69602 L 78.614 219.69602 Z " fill="#0064b1"/>
<path transform="matrix(1,0,0,-1,0,283.465)" d="M 79.179 75.79 L 78.615 75.79 L 78.615 219.69602 L 79.179 219.69602 Z " fill="#0064b1"/>
<path transform="matrix(1,0,0,-1,0,283.465)" d="M 79.743 75.79 L 79.17899 75.79 L 79.17899 219.69602 L 79.743 219.69602 Z " fill="#0065b2"/>
<path transform="matrix(1,0,0,-1,0,283.465)" d="M 80.308 75.79 L 79.743999 75.79 L 79.743999 219.69602 L 80.308 219.69602 Z " fill="#0065b2"/>
<path transform="matrix(1,0,0,-1,0,283.465)" d="M 80.872 75.79 L 80.308 75.79 L 80.308 219.69602 L 80.872 219.69602 Z " fill="#0066b2"/>
<path transform="matrix(1,0,0,-1,0,283.465)" d="M 81.437 75.79 L 80.87299 75.79 L 80.87299 219.69602 L 81.437 219.69602 Z " fill="#0066b3"/>
<path transform="matrix(1,0,0,-1,0,283.465)" d="M 82.001 75.79 L 81.437 75.79 L 81.437 219.69602 L 82.001 219.69602 Z " fill="#0066b3"/>
<path transform="matrix(1,0,0,-1,0,283.465)" d="M 82.565 75.79 L 82.001 75.79 L 82.001 219.69602 L 82.565 219.69602 Z " fill="#0067b3"/>
<path transform="matrix(1,0,0,-1,0,283.465)" d="M 83.129 75.79 L 82.564998 75.79 L 82.564998 219.69602 L 83.129 219.69602 Z " fill="#0067b4"/>
<path transform="matrix(1,0,0,-1,0,283.465)" d="M 83.694 75.79 L 83.13 75.79 L 83.13 219.69602 L 83.694 219.69602 Z " fill="#0068b4"/>
<path transform="matrix(1,0,0,-1,0,283.465)" d="M 84.258 75.79 L 83.694 75.79 L 83.694 219.69602 L 84.258 219.69602 Z " fill="#0068b4"/>
<path transform="matrix(1,0,0,-1,0,283.465)" d="M 84.823 75.79 L 84.258998 75.79 L 84.258998 219.69602 L 84.823 219.69602 Z " fill="#0069b5"/>
<path transform="matrix(1,0,0,-1,0,283.465)" d="M 85.387 75.79 L 84.823 75.79 L 84.823 219.69602 L 85.387 219.69602 Z " fill="#0069b5"/>
<path transform="matrix(1,0,0,-1,0,283.465)" d="M 85.952 75.79 L 85.388 75.79 L 85.388 219.69602 L 85.952 219.69602 Z " fill="#006ab5"/>
<path transform="matrix(1,0,0,-1,0,283.465)" d="M 86.516 75.79 L 85.951999 75.79 L 85.951999 219.69602 L 86.516 219.69602 Z " fill="#006ab6"/>
<path transform="matrix(1,0,0,-1,0,283.465)" d="M 87.08 75.79 L 86.516 75.79 L 86.516 219.69602 L 87.08 219.69602 Z " fill="#006ab6"/>
<path transform="matrix(1,0,0,-1,0,283.465)" d="M 87.645 75.79 L 87.08099 75.79 L 87.08099 219.69602 L 87.645 219.69602 Z " fill="#006bb7"/>
<path transform="matrix(1,0,0,-1,0,283.465)" d="M 88.209 75.79 L 87.645 75.79 L 87.645 219.69602 L 88.209 219.69602 Z " fill="#006bb7"/>
<path transform="matrix(1,0,0,-1,0,283.465)" d="M 88.773 75.79 L 88.209 75.79 L 88.209 219.69602 L 88.773 219.69602 Z " fill="#006cb7"/>
<path transform="matrix(1,0,0,-1,0,283.465)" d="M 89.338 75.79 L 88.773998 75.79 L 88.773998 219.69602 L 89.338 219.69602 Z " fill="#006cb8"/>
<path transform="matrix(1,0,0,-1,0,283.465)" d="M 89.902 75.79 L 89.338 75.79 L 89.338 219.69602 L 89.902 219.69602 Z " fill="#006db8"/>
<path transform="matrix(1,0,0,-1,0,283.465)" d="M 90.467 75.79 L 89.903 75.79 L 89.903 219.69602 L 90.467 219.69602 Z " fill="#006db8"/>
<path transform="matrix(1,0,0,-1,0,283.465)" d="M 91.031 75.79 L 90.466999 75.79 L 90.466999 219.69602 L 91.031 219.69602 Z " fill="#006eb9"/>
<path transform="matrix(1,0,0,-1,0,283.465)" d="M 91.595 75.79 L 91.031 75.79 L 91.031 219.69602 L 91.595 219.69602 Z " fill="#006eb9"/>
<path transform="matrix(1,0,0,-1,0,283.465)" d="M 92.16 75.79 L 91.596 75.79 L 91.596 219.69602 L 92.16 219.69602 Z " fill="#006eb9"/>
<path transform="matrix(1,0,0,-1,0,283.465)" d="M 92.724 75.79 L 92.159999 75.79 L 92.159999 219.69602 L 92.724 219.69602 Z " fill="#006fba"/>
<path transform="matrix(1,0,0,-1,0,283.465)" d="M 93.289 75.79 L 92.725 75.79 L 92.725 219.69602 L 93.289 219.69602 Z " fill="#006fba"/>
<path transform="matrix(1,0,0,-1,0,283.465)" d="M 93.853 75.79 L 93.288997 75.79 L 93.288997 219.69602 L 93.853 219.69602 Z " fill="#0070ba"/>
<path transform="matrix(1,0,0,-1,0,283.465)" d="M 94.417 75.79 L 93.853 75.79 L 93.853 219.69602 L 94.417 219.69602 Z " fill="#0070bb"/>
<path transform="matrix(1,0,0,-1,0,283.465)" d="M 94.982 75.79 L 94.418 75.79 L 94.418 219.69602 L 94.982 219.69602 Z " fill="#0071bb"/>
<path transform="matrix(1,0,0,-1,0,283.465)" d="M 95.546 75.79 L 94.981998 75.79 L 94.981998 219.69602 L 95.546 219.69602 Z " fill="#0071bb"/>
<path transform="matrix(1,0,0,-1,0,283.465)" d="M 96.11 75.79 L 95.546 75.79 L 95.546 219.69602 L 96.11 219.69602 Z " fill="#0072bc"/>
<path transform="matrix(1,0,0,-1,0,283.465)" d="M 96.675 75.79 L 96.111 75.79 L 96.111 219.69602 L 96.675 219.69602 Z " fill="#0072bc"/>
<path transform="matrix(1,0,0,-1,0,283.465)" d="M 97.239 75.79 L 96.674999 75.79 L 96.674999 219.69602 L 97.239 219.69602 Z " fill="#0073bc"/>
<path transform="matrix(1,0,0,-1,0,283.465)" d="M 97.804 75.79 L 97.24 75.79 L 97.24 219.69602 L 97.804 219.69602 Z " fill="#0073bd"/>
<path transform="matrix(1,0,0,-1,0,283.465)" d="M 98.368 75.79 L 97.80399 75.79 L 97.80399 219.69602 L 98.368 219.69602 Z " fill="#0073bd"/>
<path transform="matrix(1,0,0,-1,0,283.465)" d="M 98.933 75.79 L 98.368999 75.79 L 98.368999 219.69602 L 98.933 219.69602 Z " fill="#0074be"/>
<path transform="matrix(1,0,0,-1,0,283.465)" d="M 99.497 75.79 L 98.933 75.79 L 98.933 219.69602 L 99.497 219.69602 Z " fill="#0074be"/>
<path transform="matrix(1,0,0,-1,0,283.465)" d="M 100.061 75.79 L 99.496997 75.79 L 99.496997 219.69602 L 100.061 219.69602 Z " fill="#0075be"/>
<path transform="matrix(1,0,0,-1,0,283.465)" d="M 100.625 75.79 L 100.061 75.79 L 100.061 219.69602 L 100.625 219.69602 Z " fill="#0075bf"/>
<path transform="matrix(1,0,0,-1,0,283.465)" d="M 101.19 75.79 L 100.626 75.79 L 100.626 219.69602 L 101.19 219.69602 Z " fill="#0076bf"/>
<path transform="matrix(1,0,0,-1,0,283.465)" d="M 101.754 75.79 L 101.189998 75.79 L 101.189998 219.69602 L 101.754 219.69602 Z " fill="#0076bf"/>
<path transform="matrix(1,0,0,-1,0,283.465)" d="M 102.319 75.79 L 101.755 75.79 L 101.755 219.69602 L 102.319 219.69602 Z " fill="#0077c0"/>
<path transform="matrix(1,0,0,-1,0,283.465)" d="M 102.883 75.79 L 102.319 75.79 L 102.319 219.69602 L 102.883 219.69602 Z " fill="#0077c0"/>
<path transform="matrix(1,0,0,-1,0,283.465)" d="M 103.448 75.79 L 102.883998 75.79 L 102.883998 219.69602 L 103.448 219.69602 Z " fill="#0078c1"/>
<path transform="matrix(1,0,0,-1,0,283.465)" d="M 104.012 75.79 L 103.448 75.79 L 103.448 219.69602 L 104.012 219.69602 Z " fill="#0078c1"/>
<path transform="matrix(1,0,0,-1,0,283.465)" d="M 104.576 75.79 L 104.01199 75.79 L 104.01199 219.69602 L 104.576 219.69602 Z " fill="#0078c1"/>
<path transform="matrix(1,0,0,-1,0,283.465)" d="M 105.141 75.79 L 104.576999 75.79 L 104.576999 219.69602 L 105.141 219.69602 Z " fill="#0079c2"/>
<path transform="matrix(1,0,0,-1,0,283.465)" d="M 105.705 75.79 L 105.141 75.79 L 105.141 219.69602 L 105.705 219.69602 Z " fill="#0079c2"/>
<path transform="matrix(1,0,0,-1,0,283.465)" d="M 106.27 75.79 L 105.70599 75.79 L 105.70599 219.69602 L 106.27 219.69602 Z " fill="#007ac2"/>
<path transform="matrix(1,0,0,-1,0,283.465)" d="M 106.834 75.79 L 106.27 75.79 L 106.27 219.69602 L 106.834 219.69602 Z " fill="#007ac3"/>
<path transform="matrix(1,0,0,-1,0,283.465)" d="M 107.398 75.79 L 106.834 75.79 L 106.834 219.69602 L 107.398 219.69602 Z " fill="#007bc3"/>
<path transform="matrix(1,0,0,-1,0,283.465)" d="M 107.963 75.79 L 107.398998 75.79 L 107.398998 219.69602 L 107.963 219.69602 Z " fill="#007bc4"/>
<path transform="matrix(1,0,0,-1,0,283.465)" d="M 108.527 75.79 L 107.963 75.79 L 107.963 219.69602 L 108.527 219.69602 Z " fill="#007cc4"/>
<path transform="matrix(1,0,0,-1,0,283.465)" d="M 109.091 75.79 L 108.527 75.79 L 108.527 219.69602 L 109.091 219.69602 Z " fill="#007cc4"/>
<path transform="matrix(1,0,0,-1,0,283.465)" d="M 109.656 75.79 L 109.091999 75.79 L 109.091999 219.69602 L 109.656 219.69602 Z " fill="#007dc5"/>
<path transform="matrix(1,0,0,-1,0,283.465)" d="M 110.22 75.79 L 109.656 75.79 L 109.656 219.69602 L 110.22 219.69602 Z " fill="#007dc5"/>
<path transform="matrix(1,0,0,-1,0,283.465)" d="M 110.785 75.79 L 110.221 75.79 L 110.221 219.69602 L 110.785 219.69602 Z " fill="#007ec5"/>
<path transform="matrix(1,0,0,-1,0,283.465)" d="M 111.349 75.79 L 110.784999 75.79 L 110.784999 219.69602 L 111.349 219.69602 Z " fill="#007ec6"/>
<path transform="matrix(1,0,0,-1,0,283.465)" d="M 111.914 75.79 L 111.35 75.79 L 111.35 219.69602 L 111.914 219.69602 Z " fill="#007ec6"/>
<path transform="matrix(1,0,0,-1,0,283.465)" d="M 112.478 75.79 L 111.913997 75.79 L 111.913997 219.69602 L 112.478 219.69602 Z " fill="#007fc7"/>
<path transform="matrix(1,0,0,-1,0,283.465)" d="M 113.042 75.79 L 112.478 75.79 L 112.478 219.69602 L 113.042 219.69602 Z " fill="#007fc7"/>
<path transform="matrix(1,0,0,-1,0,283.465)" d="M 113.606 75.79 L 113.042 75.79 L 113.042 219.69602 L 113.606 219.69602 Z " fill="#0080c7"/>
<path transform="matrix(1,0,0,-1,0,283.465)" d="M 114.171 75.79 L 113.606998 75.79 L 113.606998 219.69602 L 114.171 219.69602 Z " fill="#0080c8"/>
<path transform="matrix(1,0,0,-1,0,283.465)" d="M 114.735 75.79 L 114.171 75.79 L 114.171 219.69602 L 114.735 219.69602 Z " fill="#0081c8"/>
<path transform="matrix(1,0,0,-1,0,283.465)" d="M 115.3 75.79 L 114.736 75.79 L 114.736 219.69602 L 115.3 219.69602 Z " fill="#0081c9"/>
<path transform="matrix(1,0,0,-1,0,283.465)" d="M 115.864 75.79 L 115.299999 75.79 L 115.299999 219.69602 L 115.864 219.69602 Z " fill="#0082c9"/>
<path transform="matrix(1,0,0,-1,0,283.465)" d="M 116.429 75.79 L 115.865 75.79 L 115.865 219.69602 L 116.429 219.69602 Z " fill="#0082c9"/>
<path transform="matrix(1,0,0,-1,0,283.465)" d="M 116.993 75.79 L 116.42899 75.79 L 116.42899 219.69602 L 116.993 219.69602 Z " fill="#0083ca"/>
<path transform="matrix(1,0,0,-1,0,283.465)" d="M 117.557 75.79 L 116.993 75.79 L 116.993 219.69602 L 117.557 219.69602 Z " fill="#0083ca"/>
<path transform="matrix(1,0,0,-1,0,283.465)" d="M 118.122 75.79 L 117.558 75.79 L 117.558 219.69602 L 118.122 219.69602 Z " fill="#0084cb"/>
<path transform="matrix(1,0,0,-1,0,283.465)" d="M 118.686 75.79 L 118.121997 75.79 L 118.121997 219.69602 L 118.686 219.69602 Z " fill="#0084cb"/>
<path transform="matrix(1,0,0,-1,0,283.465)" d="M 119.25 75.79 L 118.686 75.79 L 118.686 219.69602 L 119.25 219.69602 Z " fill="#0085cb"/>
<path transform="matrix(1,0,0,-1,0,283.465)" d="M 119.815 75.79 L 119.251 75.79 L 119.251 219.69602 L 119.815 219.69602 Z " fill="#0085cc"/>
<path transform="matrix(1,0,0,-1,0,283.465)" d="M 120.379 75.79 L 119.814998 75.79 L 119.814998 219.69602 L 120.379 219.69602 Z " fill="#0086cc"/>
<path transform="matrix(1,0,0,-1,0,283.465)" d="M 120.943 75.79 L 120.379 75.79 L 120.379 219.69602 L 120.943 219.69602 Z " fill="#0086cd"/>
<path transform="matrix(1,0,0,-1,0,283.465)" d="M 121.508 75.79 L 120.944 75.79 L 120.944 219.69602 L 121.508 219.69602 Z " fill="#0086cd"/>
<path transform="matrix(1,0,0,-1,0,283.465)" d="M 122.072 75.79 L 121.507999 75.79 L 121.507999 219.69602 L 122.072 219.69602 Z " fill="#0087cd"/>
<path transform="matrix(1,0,0,-1,0,283.465)" d="M 122.637 75.79 L 122.073 75.79 L 122.073 219.69602 L 122.637 219.69602 Z " fill="#0087ce"/>
<path transform="matrix(1,0,0,-1,0,283.465)" d="M 123.201 75.79 L 122.63699 75.79 L 122.63699 219.69602 L 123.201 219.69602 Z " fill="#0088ce"/>
<path transform="matrix(1,0,0,-1,0,283.465)" d="M 123.766 75.79 L 123.201999 75.79 L 123.201999 219.69602 L 123.766 219.69602 Z " fill="#0088cf"/>
<path transform="matrix(1,0,0,-1,0,283.465)" d="M 124.33 75.79 L 123.766 75.79 L 123.766 219.69602 L 124.33 219.69602 Z " fill="#0089cf"/>
<path transform="matrix(1,0,0,-1,0,283.465)" d="M 124.895 75.79 L 124.33099 75.79 L 124.33099 219.69602 L 124.895 219.69602 Z " fill="#0089cf"/>
<path transform="matrix(1,0,0,-1,0,283.465)" d="M 125.458 75.79 L 124.894 75.79 L 124.894 219.69602 L 125.458 219.69602 Z " fill="#008ad0"/>
<path transform="matrix(1,0,0,-1,0,283.465)" d="M 126.023 75.79 L 125.459 75.79 L 125.459 219.69602 L 126.023 219.69602 Z " fill="#008ad0"/>
<path transform="matrix(1,0,0,-1,0,283.465)" d="M 126.587 75.79 L 126.022998 75.79 L 126.022998 219.69602 L 126.587 219.69602 Z " fill="#008bd1"/>
<path transform="matrix(1,0,0,-1,0,283.465)" d="M 127.152 75.79 L 126.588 75.79 L 126.588 219.69602 L 127.152 219.69602 Z " fill="#008bd1"/>
<path transform="matrix(1,0,0,-1,0,283.465)" d="M 127.716 75.79 L 127.152 75.79 L 127.152 219.69602 L 127.716 219.69602 Z " fill="#008cd1"/>
<path transform="matrix(1,0,0,-1,0,283.465)" d="M 128.281 75.79 L 127.717 75.79 L 127.717 219.69602 L 128.281 219.69602 Z " fill="#008cd2"/>
<path transform="matrix(1,0,0,-1,0,283.465)" d="M 128.845 75.79 L 128.281 75.79 L 128.281 219.69602 L 128.845 219.69602 Z " fill="#008dd2"/>
<path transform="matrix(1,0,0,-1,0,283.465)" d="M 129.409 75.79 L 128.845 75.79 L 128.845 219.69602 L 129.409 219.69602 Z " fill="#008dd3"/>
<path transform="matrix(1,0,0,-1,0,283.465)" d="M 129.974 75.79 L 129.41 75.79 L 129.41 219.69602 L 129.974 219.69602 Z " fill="#008ed3"/>
<path transform="matrix(1,0,0,-1,0,283.465)" d="M 130.538 75.79 L 129.974 75.79 L 129.974 219.69602 L 130.538 219.69602 Z " fill="#008ed3"/>
<path transform="matrix(1,0,0,-1,0,283.465)" d="M 131.103 75.79 L 130.539 75.79 L 130.539 219.69602 L 131.103 219.69602 Z " fill="#008ed4"/>
<path transform="matrix(1,0,0,-1,0,283.465)" d="M 131.667 75.79 L 131.10301 75.79 L 131.10301 219.69602 L 131.667 219.69602 Z " fill="#008fd4"/>
<path transform="matrix(1,0,0,-1,0,283.465)" d="M 132.231 75.79 L 131.667 75.79 L 131.667 219.69602 L 132.231 219.69602 Z " fill="#008fd5"/>
<path transform="matrix(1,0,0,-1,0,283.465)" d="M 132.796 75.79 L 132.23201 75.79 L 132.23201 219.69602 L 132.796 219.69602 Z " fill="#0090d5"/>
<path transform="matrix(1,0,0,-1,0,283.465)" d="M 133.36 75.79 L 132.796 75.79 L 132.796 219.69602 L 133.36 219.69602 Z " fill="#0090d6"/>
<path transform="matrix(1,0,0,-1,0,283.465)" d="M 133.924 75.79 L 133.36 75.79 L 133.36 219.69602 L 133.924 219.69602 Z " fill="#0091d6"/>
<path transform="matrix(1,0,0,-1,0,283.465)" d="M 134.489 75.79 L 133.925 75.79 L 133.925 219.69602 L 134.489 219.69602 Z " fill="#0091d6"/>
<path transform="matrix(1,0,0,-1,0,283.465)" d="M 135.053 75.79 L 134.489 75.79 L 134.489 219.69602 L 135.053 219.69602 Z " fill="#0092d7"/>
<path transform="matrix(1,0,0,-1,0,283.465)" d="M 135.618 75.79 L 135.054 75.79 L 135.054 219.69602 L 135.618 219.69602 Z " fill="#0092d7"/>
<path transform="matrix(1,0,0,-1,0,283.465)" d="M 136.182 75.79 L 135.61801 75.79 L 135.61801 219.69602 L 136.182 219.69602 Z " fill="#0093d8"/>
<path transform="matrix(1,0,0,-1,0,283.465)" d="M 136.747 75.79 L 136.183 75.79 L 136.183 219.69602 L 136.747 219.69602 Z " fill="#0093d8"/>
<path transform="matrix(1,0,0,-1,0,283.465)" d="M 137.311 75.79 L 136.74701 75.79 L 136.74701 219.69602 L 137.311 219.69602 Z " fill="#0093d8"/>
<path transform="matrix(1,0,0,-1,0,283.465)" d="M 137.875 75.79 L 137.311 75.79 L 137.311 219.69602 L 137.875 219.69602 Z " fill="#0094d9"/>
<path transform="matrix(1,0,0,-1,0,283.465)" d="M 138.439 75.79 L 137.875 75.79 L 137.875 219.69602 L 138.439 219.69602 Z " fill="#0094d9"/>
<path transform="matrix(1,0,0,-1,0,283.465)" d="M 139.004 75.79 L 138.44 75.79 L 138.44 219.69602 L 139.004 219.69602 Z " fill="#0095d9"/>
<path transform="matrix(1,0,0,-1,0,283.465)" d="M 139.568 75.79 L 139.004 75.79 L 139.004 219.69602 L 139.568 219.69602 Z " fill="#0095da"/>
<path transform="matrix(1,0,0,-1,0,283.465)" d="M 140.133 75.79 L 139.569 75.79 L 139.569 219.69602 L 140.133 219.69602 Z " fill="#0096da"/>
<path transform="matrix(1,0,0,-1,0,283.465)" d="M 140.697 75.79 L 140.13301 75.79 L 140.13301 219.69602 L 140.697 219.69602 Z " fill="#0096db"/>
<path transform="matrix(1,0,0,-1,0,283.465)" d="M 141.262 75.79 L 140.698 75.79 L 140.698 219.69602 L 141.262 219.69602 Z " fill="#0097db"/>
<path transform="matrix(1,0,0,-1,0,283.465)" d="M 141.826 75.79 L 141.26201 75.79 L 141.26201 219.69602 L 141.826 219.69602 Z " fill="#0097dc"/>
<path transform="matrix(1,0,0,-1,0,283.465)" d="M 142.39 75.79 L 141.826 75.79 L 141.826 219.69602 L 142.39 219.69602 Z " fill="#0098dc"/>
<path transform="matrix(1,0,0,-1,0,283.465)" d="M 142.955 75.79 L 142.391 75.79 L 142.391 219.69602 L 142.955 219.69602 Z " fill="#0098dc"/>
<path transform="matrix(1,0,0,-1,0,283.465)" d="M 143.519 75.79 L 142.955 75.79 L 142.955 219.69602 L 143.519 219.69602 Z " fill="#0099dd"/>
<path transform="matrix(1,0,0,-1,0,283.465)" d="M 144.083 75.79 L 143.519 75.79 L 143.519 219.69602 L 144.083 219.69602 Z " fill="#0099dd"/>
<path transform="matrix(1,0,0,-1,0,283.465)" d="M 144.648 75.79 L 144.084 75.79 L 144.084 219.69602 L 144.648 219.69602 Z " fill="#009ade"/>
<path transform="matrix(1,0,0,-1,0,283.465)" d="M 145.212 75.79 L 144.64801 75.79 L 144.64801 219.69602 L 145.212 219.69602 Z " fill="#009ade"/>
<path transform="matrix(1,0,0,-1,0,283.465)" d="M 145.777 75.79 L 145.213 75.79 L 145.213 219.69602 L 145.777 219.69602 Z " fill="#009ade"/>
<path transform="matrix(1,0,0,-1,0,283.465)" d="M 146.341 75.79 L 145.77701 75.79 L 145.77701 219.69602 L 146.341 219.69602 Z " fill="#009bdf"/>
<path transform="matrix(1,0,0,-1,0,283.465)" d="M 146.905 75.79 L 146.341 75.79 L 146.341 219.69602 L 146.905 219.69602 Z " fill="#009bdf"/>
<path transform="matrix(1,0,0,-1,0,283.465)" d="M 147.47 75.79 L 146.906 75.79 L 146.906 219.69602 L 147.47 219.69602 Z " fill="#009cdf"/>
<path transform="matrix(1,0,0,-1,0,283.465)" d="M 148.034 75.79 L 147.47 75.79 L 147.47 219.69602 L 148.034 219.69602 Z " fill="#009ce0"/>
<path transform="matrix(1,0,0,-1,0,283.465)" d="M 148.599 75.79 L 148.035 75.79 L 148.035 219.69602 L 148.599 219.69602 Z " fill="#009de0"/>
<path transform="matrix(1,0,0,-1,0,283.465)" d="M 149.163 75.79 L 148.599 75.79 L 148.599 219.69602 L 149.163 219.69602 Z " fill="#009de1"/>
<path transform="matrix(1,0,0,-1,0,283.465)" d="M 149.728 75.79 L 149.164 75.79 L 149.164 219.69602 L 149.728 219.69602 Z " fill="#009ee1"/>
<path transform="matrix(1,0,0,-1,0,283.465)" d="M 150.292 75.79 L 149.72801 75.79 L 149.72801 219.69602 L 150.292 219.69602 Z " fill="#009ee1"/>
<path transform="matrix(1,0,0,-1,0,283.465)" d="M 150.856 75.79 L 150.292 75.79 L 150.292 219.69602 L 150.856 219.69602 Z " fill="#009ee2"/>
<path transform="matrix(1,0,0,-1,0,283.465)" d="M 151.42 75.79 L 150.856 75.79 L 150.856 219.69602 L 151.42 219.69602 Z " fill="#009fe2"/>
<path transform="matrix(1,0,0,-1,0,283.465)" d="M 151.985 75.79 L 151.421 75.79 L 151.421 219.69602 L 151.985 219.69602 Z " fill="#009fe3"/>
<path transform="matrix(1,0,0,-1,0,283.465)" d="M 152.549 75.79 L 151.985 75.79 L 151.985 219.69602 L 152.549 219.69602 Z " fill="#00a0e3"/>
<path transform="matrix(1,0,0,-1,0,283.465)" d="M 153.114 75.79 L 152.55 75.79 L 152.55 219.69602 L 153.114 219.69602 Z " fill="#00a0e3"/>
<path transform="matrix(1,0,0,-1,0,283.465)" d="M 153.678 75.79 L 153.114 75.79 L 153.114 219.69602 L 153.678 219.69602 Z " fill="#00a1e4"/>
<path transform="matrix(1,0,0,-1,0,283.465)" d="M 154.243 75.79 L 153.679 75.79 L 153.679 219.69602 L 154.243 219.69602 Z " fill="#00a1e4"/>
<path transform="matrix(1,0,0,-1,0,283.465)" d="M 154.807 75.79 L 154.24301 75.79 L 154.24301 219.69602 L 154.807 219.69602 Z " fill="#00a2e5"/>
<path transform="matrix(1,0,0,-1,0,283.465)" d="M 155.371 75.79 L 154.807 75.79 L 154.807 219.69602 L 155.371 219.69602 Z " fill="#00a2e5"/>
<path transform="matrix(1,0,0,-1,0,283.465)" d="M 155.936 75.79 L 155.37201 75.79 L 155.37201 219.69602 L 155.936 219.69602 Z " fill="#00a2e5"/>
<path transform="matrix(1,0,0,-1,0,283.465)" d="M 156.5 75.79 L 155.936 75.79 L 155.936 219.69602 L 156.5 219.69602 Z " fill="#00a3e6"/>
<path transform="matrix(1,0,0,-1,0,283.465)" d="M 157.064 75.79 L 156.5 75.79 L 156.5 219.69602 L 157.064 219.69602 Z " fill="#00a3e6"/>
<path transform="matrix(1,0,0,-1,0,283.465)" d="M 157.629 75.79 L 157.065 75.79 L 157.065 219.69602 L 157.629 219.69602 Z " fill="#00a4e7"/>
<path transform="matrix(1,0,0,-1,0,283.465)" d="M 158.193 75.79 L 157.629 75.79 L 157.629 219.69602 L 158.193 219.69602 Z " fill="#00a4e7"/>
<path transform="matrix(1,0,0,-1,0,283.465)" d="M 158.758 75.79 L 158.194 75.79 L 158.194 219.69602 L 158.758 219.69602 Z " fill="#00a5e7"/>
<path transform="matrix(1,0,0,-1,0,283.465)" d="M 159.322 75.79 L 158.75801 75.79 L 158.75801 219.69602 L 159.322 219.69602 Z " fill="#00a5e8"/>
<path transform="matrix(1,0,0,-1,0,283.465)" d="M 159.886 75.79 L 159.322 75.79 L 159.322 219.69602 L 159.886 219.69602 Z " fill="#00a6e8"/>
<path transform="matrix(1,0,0,-1,0,283.465)" d="M 160.451 75.79 L 159.88701 75.79 L 159.88701 219.69602 L 160.451 219.69602 Z " fill="#00a6e9"/>
<path transform="matrix(1,0,0,-1,0,283.465)" d="M 161.015 75.79 L 160.451 75.79 L 160.451 219.69602 L 161.015 219.69602 Z " fill="#00a7e9"/>
<path transform="matrix(1,0,0,-1,0,283.465)" d="M 161.58 75.79 L 161.016 75.79 L 161.016 219.69602 L 161.58 219.69602 Z " fill="#00a8ea"/>
<path transform="matrix(1,0,0,-1,0,283.465)" d="M 162.144 75.79 L 161.58 75.79 L 161.58 219.69602 L 162.144 219.69602 Z " fill="#00a8ea"/>
<path transform="matrix(1,0,0,-1,0,283.465)" d="M 162.708 75.79 L 162.144 75.79 L 162.144 219.69602 L 162.708 219.69602 Z " fill="#00a9eb"/>
<path transform="matrix(1,0,0,-1,0,283.465)" d="M 163.273 75.79 L 162.709 75.79 L 162.709 219.69602 L 163.273 219.69602 Z " fill="#00a9eb"/>
<path transform="matrix(1,0,0,-1,0,283.465)" d="M 163.837 75.79 L 163.27301 75.79 L 163.27301 219.69602 L 163.837 219.69602 Z " fill="#00aaec"/>
<path transform="matrix(1,0,0,-1,0,283.465)" d="M 164.401 75.79 L 163.837 75.79 L 163.837 219.69602 L 164.401 219.69602 Z " fill="#00aaec"/>
<path transform="matrix(1,0,0,-1,0,283.465)" d="M 164.966 75.79 L 164.40201 75.79 L 164.40201 219.69602 L 164.966 219.69602 Z " fill="#00abed"/>
<path transform="matrix(1,0,0,-1,0,283.465)" d="M 165.53 75.79 L 164.966 75.79 L 164.966 219.69602 L 165.53 219.69602 Z " fill="#00abed"/>
<path transform="matrix(1,0,0,-1,0,283.465)" d="M 166.095 75.79 L 165.531 75.79 L 165.531 219.69602 L 166.095 219.69602 Z " fill="#00acee"/>
<path transform="matrix(1,0,0,-1,0,283.465)" d="M 166.659 75.79 L 166.095 75.79 L 166.095 219.69602 L 166.659 219.69602 Z " fill="#00adee"/>
<path transform="matrix(1,0,0,-1,0,283.465)" d="M 167.224 75.79 L 166.66 75.79 L 166.66 219.69602 L 167.224 219.69602 Z " fill="#00adef"/>
<path transform="matrix(1,0,0,-1,0,283.465)" d="M 167.788 75.79 L 167.224 75.79 L 167.224 219.69602 L 167.788 219.69602 Z " fill="#00aeef"/>
<path transform="matrix(1,0,0,-1,167.7876,207.6752)" d="M 0 0 L 0 143.906 Z " fill="#00aeef"/>
</g>
<clipPath id="cp2">
<path transform="matrix(1,0,0,-1,0,283.465)" d="M 0 283.465 L 566.929 283.465 L 566.929 0 L 0 0 Z "/>
</clipPath>
<g clip-path="url(#cp2)">
<path transform="matrix(1,0,0,-1,95.833,65.91989)" d="M 0 0 C -38.494 0 -69.813 -31.31 -69.813 -69.795 C -69.813 -108.287 -38.494 -139.602 0 -139.602 C 38.492 -139.602 69.804 -108.287 69.804 -69.795 C 69.804 -31.31 38.492 0 0 0 M 0 -143.906 C -40.868 -143.906 -74.118 -110.66 -74.118 -69.795 C -74.118 -28.936 -40.868 4.304 0 4.304 C 40.865 4.304 74.108 -28.936 74.108 -69.795 C 74.108 -110.66 40.865 -143.906 0 -143.906 " fill="#00aeef"/>
<path transform="matrix(1,0,0,-1,550.1875,153.5307)" d="M 0 0 L -.542 -59.082 C -49.97 -2.738 -154.681 55.742 -306.713 57.868 C -266.85 61.583 -111.636 53.609 -15.947 -28.786 C -16.489 -27.64 -16.489 -24.974 -16.489 -24.974 C -76.541 28.705 -200.398 82.929 -388.051 54.135 C -269.5 76.549 -134.227 76.549 0 0 " fill="#d2232a"/>
<path transform="matrix(1,0,0,-1,114.3052,74.3232)" d="M 0 0 C -4.75 0 -9.121 .536 -13.824 .536 C -14.702 .536 -15.596 .517 -16.477 .536 C -17.06 .548 -17.672 .377 -18.217 .627 C -18.939 .935 -19.038 1.452 -19.773 1.636 C -20.55 1.816 -22.587 1.797 -23.408 1.61 C -24.438 1.378 -24.831 .434 -25.979 .412 C -26.086 .171 -26.112 -.098 -26.058 -.361 C -26.022 2.165 -26.755 4.292 -29.357 5.21 C -30.581 5.638 -31.607 5.093 -32.672 4.896 C -33.395 4.763 -33.898 4.859 -34.567 4.548 C -34.814 4.13 -35.169 3.835 -35.617 3.667 C -35.984 3.683 -36.333 3.699 -36.697 3.75 C -36.878 3.759 -37.062 3.769 -37.239 3.775 C -37.6 3.604 -37.819 3.306 -37.866 2.896 C -38.488 2.649 -39.144 2.837 -39.765 2.542 C -40.64 2.139 -40.96 1.303 -41.983 .935 C -42.652 .691 -44.665 .498 -45.096 -.098 C -45.635 -.84 -45.188 -3.401 -45.188 -4.275 C -45.188 -5.318 -45.53 -7.023 -45.229 -7.996 C -44.75 -9.504 -42.757 -9.784 -42.079 -11.152 C -40.64 -14.008 -43.771 -14.908 -45.594 -15.523 C -46.681 -15.888 -47.952 -16.633 -49.112 -16.889 C -51.063 -17.292 -52.8 -17.897 -54.505 -19.006 C -55.64 -19.735 -57.434 -21.044 -58.112 -22.191 C -58.594 -23.016 -58.04 -24.698 -59.446 -24.533 C -59.719 -26.967 -61.39 -29.173 -63.272 -30.679 C -63.807 -31.123 -64.362 -31.579 -64.863 -32.025 C -65.148 -32.254 -65.367 -32.523 -65.519 -32.847 C -65.775 -32.919 -66.036 -32.977 -66.305 -33.015 C -67.588 -34.232 -68 -36.482 -70.074 -36.795 C -70.212 -38.577 -72.66 -38.647 -73.892 -39.328 C -74.375 -39.6 -76.297 -40.567 -76.482 -41.046 C -76.843 -41.977 -76.066 -43.169 -75.055 -43.153 C -74.973 -44.817 -72.875 -46.142 -72.289 -47.432 C -71.683 -48.782 -71.338 -50.544 -71.23 -52.097 C -71.106 -53.866 -69.845 -55.387 -68.606 -56.851 C -66.66 -59.126 -65.256 -59.96 -62.169 -60.074 C -59.887 -60.176 -57.567 -60.055 -55.288 -60.055 C -53.46 -60.055 -50.886 -59.485 -49.441 -60.717 C -48.291 -61.703 -47.166 -63.861 -47.799 -65.398 C -48.132 -66.223 -48.931 -66.654 -49.304 -67.62 C -49.767 -68.812 -49.917 -69.892 -50.046 -71.129 C -50.857 -71.202 -50.902 -71.762 -51.539 -72.057 C -52.369 -72.438 -52.871 -72.168 -53.723 -72.276 C -54.527 -72.39 -54.483 -72.492 -55.158 -72.825 C -55.599 -73.034 -55.548 -73.487 -56.249 -73.446 C -56.949 -75.737 -56.347 -78.918 -56.347 -81.331 C -56.347 -82.393 -55.989 -84.132 -56.312 -85.083 C -56.667 -86.176 -58.055 -87.185 -58.749 -88.205 C -59.725 -89.647 -59.742 -90.69 -61.158 -91.863 C -62.014 -92.56 -62.819 -92.998 -63.807 -93.551 C -64.669 -94.049 -65.652 -94.594 -66.422 -95.14 C -66.6 -95.248 -67.49 -96.065 -67.614 -96.113 C -68.346 -96.423 -69.465 -96.021 -69.164 -97.292 C -68.986 -98.075 -67.604 -98.448 -66.996 -98.974 C -66.166 -99.697 -65.62 -100.59 -64.863 -101.402 C -64.14 -102.172 -63.233 -102.774 -63.75 -104.201 C -63.95 -104.768 -64.606 -104.961 -64.762 -105.338 C -65.075 -106.105 -64.863 -107.107 -64.854 -107.921 C -64.844 -109.807 -65.322 -111.835 -63.278 -112.723 C -62.72 -112.967 -62.302 -112.552 -61.656 -112.914 C -61.101 -113.22 -60.933 -113.988 -60.479 -114.311 C -59.466 -115.065 -58.473 -115.148 -57.558 -116.13 C -55.554 -118.31 -53.666 -120.605 -50.496 -121.229 C -49.013 -121.521 -47.628 -121.955 -46.142 -122.221 C -44.195 -122.586 -43.543 -123.486 -42.117 -121.733 C -41.131 -120.503 -40.602 -117.629 -38.52 -119.03 C -37.949 -119.435 -37.905 -119.93 -37.22 -120.17 C -36.865 -120.3 -35.908 -120.129 -35.521 -120.126 C -33.667 -120.108 -31.969 -119.958 -30.422 -120.666 C -29.652 -121.007 -28.638 -121.873 -27.658 -122.159 C -26.507 -122.485 -25.123 -122.256 -23.922 -122.256 C -22.657 -122.263 -21.821 -122.386 -20.727 -121.746 C -19.32 -120.938 -18.774 -119.381 -17.212 -119.03 C -15.786 -118.707 -13.203 -118.789 -11.938 -119.591 C -10.987 -120.196 -10.646 -121.28 -9.733 -121.892 C -7.533 -123.353 -4.177 -123.325 -1.597 -123.325 L .53 -123.325 C 1.461 -123.318 2.054 -123.581 2.773 -123.743 C 4.786 -124.162 6.77 -123.904 8.503 -122.789 C 10.427 -121.546 11.889 -120.533 14.097 -119.997 C 15.882 -119.569 17.187 -118.218 19.026 -117.902 C 19.092 -116.751 20.386 -116.586 21.244 -116.279 C 21.675 -116.124 22.505 -115.991 22.883 -115.775 C 23.542 -115.404 23.396 -114.698 24.354 -114.713 C 24.419 -114.434 24.477 -114.153 24.541 -113.874 C 26.378 -113.636 27.348 -110.913 28.292 -109.629 C 29.674 -107.745 31.96 -106.308 32.857 -104.048 C 33.437 -102.59 33.085 -99.5 32.556 -98.208 C 31.69 -96.134 29.906 -94.477 28.841 -92.465 C 27.824 -90.522 26.683 -88.851 26.173 -86.658 C 25.801 -85.036 25.316 -83.84 24.572 -82.393 C 23.926 -81.134 23.266 -78.345 24.014 -77.042 C 25.263 -74.85 27.488 -77.075 27.637 -73.886 C 27.7 -72.539 27.38 -71.924 26.965 -70.692 C 26.528 -69.417 26.92 -68.241 26.619 -66.98 C 25.976 -64.34 22.293 -64.958 20.322 -64.312 C 19.209 -63.966 17.761 -62.841 16.452 -63.234 C 14.94 -63.693 15.413 -64.898 15.419 -66.441 C 15.425 -70.878 15.4 -75.312 15.419 -79.73 C 15.419 -80.906 15.619 -81.708 14.89 -82.399 C 14.266 -83.003 12.916 -83.223 12.107 -83.461 C 11.438 -83.657 10.814 -83.933 10.196 -84.138 C 10.107 -84.165 9.068 -84.478 9.027 -84.513 C 8.126 -84.978 7.499 -85.793 6.77 -86.509 C 5.306 -87.993 3.762 -89.441 1.585 -89.87 C .574 -90.053 -.561 -89.777 -1.597 -89.952 C -2.652 -90.129 -4.053 -90.835 -5.188 -90.291 C -5.98 -89.904 -7.166 -88.528 -7.708 -87.867 C -8.624 -86.753 -9.39 -85.911 -9.58 -84.513 C -9.923 -82.155 -9.58 -79.499 -9.571 -77.107 C -9.571 -76.418 -9.447 -75.625 -9.54 -74.948 C -9.634 -74.301 -10.281 -73.429 -10.183 -72.792 C -9.996 -71.585 -8.123 -71.11 -7.295 -70.295 C -5.587 -68.606 -4.364 -66.004 -5.971 -63.804 C -7.384 -61.88 -9.932 -60.41 -12.122 -59.377 C -13.238 -58.854 -13.77 -58.084 -14.835 -57.396 C -16.407 -56.375 -17.761 -56.087 -19.146 -54.867 C -20.518 -53.65 -22.619 -52.848 -23.532 -51.175 C -24.029 -50.272 -24.277 -48.947 -24.467 -47.841 C -24.679 -46.655 -25.383 -44.995 -24.606 -43.968 C -23.538 -42.57 -21.063 -42.529 -19.671 -41.908 C -19.072 -41.635 -18.683 -41.153 -18.067 -40.906 C -17.814 -40.802 -17.162 -40.627 -16.882 -40.526 C -15.814 -40.133 -14.924 -39.835 -13.824 -39.487 C -11.872 -38.862 -10.281 -37.699 -8.519 -36.783 C -7.245 -36.117 -5.422 -36.218 -4.094 -35.75 C -2.874 -35.325 -1.664 -34.954 -.408 -34.675 C 1.841 -34.156 4.349 -35.135 6.371 -34.013 C 6.985 -33.68 7.781 -33.198 7.994 -32.454 C 8.485 -30.667 6.475 -30.428 5.315 -29.77 C 3.436 -28.692 1.316 -28.489 -.551 -27.243 C -1.543 -26.584 -2.383 -26.568 -3.489 -26.045 C -4.374 -25.627 -4.899 -24.866 -5.705 -24.299 C -6.316 -23.887 -7.501 -23.865 -8.015 -23.402 C -8.681 -22.806 -8.528 -22.29 -8.509 -21.263 C -8.494 -20.467 -8.24 -19.279 -8.652 -18.591 C -9.194 -17.694 -11.663 -17.434 -12.639 -16.874 C -13.948 -16.145 -15.212 -14.845 -15.447 -13.324 C -15.586 -12.338 -15.308 -11.881 -14.766 -11.169 C -14.527 -10.886 -14.255 -10.684 -13.929 -10.541 C -13.615 -9.939 -13.596 -9.22 -13.292 -8.602 C -12.984 -7.977 -12.233 -7.546 -11.795 -6.931 C -11.33 -6.256 -11.295 -5.499 -10.509 -4.906 C -9.279 -3.958 -7.749 -3.354 -6.412 -2.659 C -4.51 -1.683 -2.437 -2.383 -.421 -2.155 C .548 -2.044 2.704 -1.3 1.113 -.073 C .621 .311 -.982 -.003 -1.597 0 " fill="#ffffff"/>
<path transform="matrix(1,0,0,-1,21.8062,156.7163)" d="M 0 0 C -23.073 -39.766 4.252 -35.609 23.918 -31.357 C 83.99 -12.763 157.347 21.26 178.609 55.809 C 189.239 77.075 167.977 88.764 141.937 83.994 C 141.937 86.114 141.396 90.37 141.396 90.37 L 124.386 70.695 L 142.996 59.01 L 142.996 66.442 C 157.347 67.507 157.873 61.13 157.873 56.348 C 160.539 45.715 78.142 -9.564 21.269 -27.646 C -17.327 -37.001 -3.927 -12.763 1.597 0 Z " fill="#d2232a"/>
</g>
</g>
</g>
</svg>
