<?xml version="1.0" encoding="utf-8"?>
<!-- Generator: Adobe Illustrator 23.1.0, SVG Export Plug-In . SVG Version: 6.00 Build 0)  -->
<svg version="1.1" id="Layer_1" xmlns="http://www.w3.org/2000/svg" xmlns:xlink="http://www.w3.org/1999/xlink" x="0px" y="0px"
	 viewBox="0 0 338 178" style="enable-background:new 0 0 338 178;" xml:space="preserve">
<style type="text/css">
	.st0{fill:#1226AA;}
	.st1{fill:#6BC4E8;}
</style>
<g>
	<path class="st0" d="M142.3,115c4.4,0,7.5,0.5,10.4,3c3.2,2.8,4,6.7,4,9.5c0,1.5-0.2,5.8-3.2,8.8c-2.2,2.2-5.4,3.5-10,3.5h-4.9
		v14.6h-7.7V115H142.3z M138.5,133.2h3.1c1.5,0,3.4,0,5-1.2c1.4-1.1,2.1-2.9,2.1-4.6c0-2.2-1.1-3.7-2.2-4.5
		c-1.6-1.1-3.6-1.2-5.4-1.2h-2.6V133.2z"/>
	<path class="st0" d="M182,146.1h-15.9l-3.5,8.2h-8.3l16.9-39.3h6l16.4,39.3h-8.3L182,146.1z M179.8,139.8l-5.6-14.1l-5.6,14.1
		H179.8z"/>
	<path class="st0" d="M236.7,134.7c0,12-8.6,20.5-21,20.5c-12.4,0-21-8.5-21-20.5c0-12,8.6-20.6,21-20.6
		C228.1,114.1,236.7,122.7,236.7,134.7z M228.8,134.7c0-8-5.4-13.6-13.1-13.6c-7.7,0-13.1,5.7-13.1,13.6c0,8,5.4,13.6,13.1,13.6
		C223.4,148.2,228.8,142.7,228.8,134.7z"/>
	<path class="st0" d="M251.4,115v32.7h12.1v6.6h-19.8V115H251.4z"/>
	<path class="st0" d="M307.7,134.7c0,12-8.6,20.5-21,20.5c-12.4,0-21-8.5-21-20.5c0-12,8.6-20.6,21-20.6
		C299.1,114.1,307.7,122.7,307.7,134.7z M299.8,134.7c0-8-5.4-13.6-13.1-13.6c-7.7,0-13.1,5.7-13.1,13.6c0,8,5.4,13.6,13.1,13.6
		C294.4,148.2,299.8,142.7,299.8,134.7z"/>
</g>
<polygon class="st1" points="74.1,58.3 74.1,40.9 56.7,40.9 56.7,58.3 39.3,58.3 39.3,75.7 56.7,75.7 56.7,93.1 74.1,93.1 
	74.1,75.7 91.5,75.7 91.5,58.3 "/>
<polygon class="st0" points="34.8,80.2 34.8,62.9 17.4,62.9 17.4,80.2 0,80.2 0,97.6 17.4,97.6 17.4,115 34.8,115 34.8,97.6 
	52.1,97.6 52.1,80.2 "/>
<polygon class="st1" points="56.7,119.6 56.7,102.2 39.3,102.2 39.3,119.6 21.9,119.6 21.9,136.9 39.3,136.9 39.3,154.3 56.7,154.3 
	56.7,136.9 74.1,136.9 74.1,119.6 "/>
<polygon class="st0" points="96,97.6 96,80.2 78.7,80.2 78.7,97.6 61.3,97.6 61.3,115 78.7,115 78.7,132.4 96,132.4 96,115 
	113.4,115 113.4,97.6 "/>
<g>
	<g>
		<path class="st0" d="M130.8,97.6V40.9H143v56.7H130.8z"/>
		<path class="st0" d="M183.8,98.5c-13.4,0-25.4-5.9-25.4-19.2V41h12.2v37.6c0,6.9,6.2,10,13.3,10c7.1,0,13.3-3.1,13.3-10V28.8h12.2
			v50.4C209.2,92.5,196.9,98.5,183.8,98.5z"/>
		<path class="st0" d="M235.6,97.6V57.8c0-4.9-6.1-8.3-16.1-6.6v-9.9c15.7-2.5,28.3,2.5,28.3,14.4v42H235.6z"/>
		<path class="st0" d="M273.9,28.6c-2.7,0-5.4,0.1-5.4,1.8c0,2.7,6.5,3.1,6.5,10.3v56.9h-12.2V42.8c0-6.9-6.5-6.8-6.5-13.1
			c0-4.7,4.1-9,13-8.9l17.7,0.3v7.8L273.9,28.6z"/>
		<path class="st0" d="M325.8,97.6V70.1c-3.2,1.8-11.7,2.4-17.5,2.7c-5.1,0.3-10.9,2.3-10.9,7.9c0,8.6,10.9,7.9,19,5.9v10.6
			c-15.6,2.1-31.1,1.1-31.1-16.5c0-10.9,6.9-17,19.4-18.1c7.6-0.7,20.8,0.7,20.8-6.1c0-4.2-5.8-6.6-12.4-6.6c-6.5,0-13,2.7-14,8.2
			h-12.4c2.1-13.4,14.7-18.1,26.6-18.1C325,40,338,44.2,338,57.6v40H325.8z"/>
	</g>
</g>
</svg>
